<?xml version="1.0" standalone="no"?>
<!DOCTYPE svg PUBLIC "-//W3C//DTD SVG 20010904//EN"
 "http://www.w3.org/TR/2001/REC-SVG-20010904/DTD/svg10.dtd">
<svg version="1.0" xmlns="http://www.w3.org/2000/svg"
 width="486.000000pt" height="486.000000pt" viewBox="0 0 486.000000 486.000000"
 preserveAspectRatio="xMidYMid meet">
<metadata>
Created by potrace 1.11, written by Peter Selinger 2001-2013
</metadata>
<g transform="translate(0.000000,486.000000) scale(0.100000,-0.100000)"
fill="#000000" stroke="none">
<path d="M1745 4442 c-6 -7 228 -238 237 -235 5 2 8 -2 8 -8 0 -13 382 -395
393 -391 4 1 7 -5 7 -13 0 -14 29 -35 49 -35 6 0 11 7 11 16 0 8 4 13 9 9 5
-3 12 4 16 15 3 11 10 19 14 17 4 -1 25 15 45 36 34 33 37 39 25 55 -13 15
-12 16 3 3 16 -12 22 -10 49 17 19 19 28 35 24 43 -5 8 -4 10 3 5 13 -8 104
78 94 88 -3 3 0 6 7 6 6 0 38 26 71 58 47 46 57 61 47 71 -9 10 -8 11 5 6 13
-5 47 23 138 114 66 67 120 122 120 124 0 7 -167 1 -179 -7 -9 -6 -12 -5 -8 0
7 12 -33 12 -50 1 -7 -5 -13 -5 -13 0 0 4 -15 8 -34 8 -19 0 -32 -3 -29 -7 2
-5 -1 -8 -6 -8 -6 0 -11 5 -11 10 0 6 -5 10 -11 10 -5 0 -7 -6 -3 -12 6 -10 4
-10 -8 0 -12 9 -18 10 -23 2 -5 -8 -11 -8 -21 1 -11 9 -14 8 -14 -2 0 -9 -3
-10 -8 -4 -9 12 -112 13 -131 1 -10 -6 -12 -5 -7 2 4 7 3 12 -3 12 -5 0 -13
-5 -16 -10 -4 -6 -13 -7 -23 -2 -20 10 -103 8 -120 -2 -7 -4 -12 -4 -12 1 0 4
-15 8 -34 8 -19 0 -32 -3 -29 -7 2 -5 -1 -8 -6 -8 -6 0 -11 5 -11 10 0 6 -5
10 -11 10 -5 0 -7 -6 -3 -12 6 -10 5 -10 -7 -1 -12 10 -18 10 -29 0 -7 -6 -10
-7 -7 -2 3 6 -13 10 -39 11 -28 0 -41 -3 -37 -10 4 -6 0 -5 -8 1 -12 10 -18
10 -29 0 -7 -6 -10 -7 -7 -2 3 7 -22 10 -71 9 -43 -1 -79 -3 -82 -4 -3 -1 -9
-1 -15 0 -19 5 -216 6 -220 2z m536 -115 c-10 -9 -11 -8 -5 6 3 10 9 15 12 12
3 -3 0 -11 -7 -18z m84 13 c3 -5 1 -10 -4 -10 -6 0 -11 5 -11 10 0 6 2 10 4
10 3 0 8 -4 11 -10z m85 6 c0 -3 -4 -8 -10 -11 -5 -3 -10 -1 -10 4 0 6 5 11
10 11 6 0 10 -2 10 -4z m80 0 c0 -3 -4 -8 -10 -11 -5 -3 -10 -1 -10 4 0 6 5
11 10 11 6 0 10 -2 10 -4z m-400 -86 c0 -5 -2 -10 -4 -10 -3 0 -8 5 -11 10 -3
6 -1 10 4 10 6 0 11 -4 11 -10z m320 0 c0 -5 -5 -10 -11 -10 -5 0 -7 5 -4 10
3 6 8 10 11 10 2 0 4 -4 4 -10z m437 -15 c0 -8 -4 -12 -9 -9 -5 3 -6 10 -3 15
9 13 12 11 12 -6z m-317 -89 c0 -2 -8 -10 -17 -17 -16 -13 -17 -12 -4 4 13 16
21 21 21 13z m-240 -10 c0 -3 -4 -8 -10 -11 -5 -3 -10 -1 -10 4 0 6 5 11 10
11 6 0 10 -2 10 -4z m-76 -84 c3 -5 -1 -9 -9 -9 -8 0 -12 4 -9 9 3 4 7 8 9 8
2 0 6 -4 9 -8z m382 -4 c3 -4 -1 -5 -10 -4 -8 1 -18 5 -22 8 -3 4 1 5 10 4 8
-1 18 -5 22 -8z m-136 -194 c0 -8 -19 -13 -24 -6 -3 5 1 9 9 9 8 0 15 -2 15
-3z"/>
<path d="M5 2428 l0 -2013 254 -3 254 -2 123 121 123 122 0 1521 0 1521 -372
373 c-205 204 -374 372 -377 372 -3 0 -6 -906 -5 -2012z"/>
<path d="M4473 4067 l-372 -372 2 -1640 2 -1640 373 -3 c204 -1 373 1 373 5 5
27 3 4015 -1 4018 -4 2 -173 -164 -377 -368z"/>
<path d="M1027 3192 c1 -120 4 -225 7 -234 2 -10 1 -18 -2 -18 -4 0 -7 -31 -7
-70 0 -38 3 -70 7 -70 4 0 5 -6 2 -14 -9 -23 -10 -466 -1 -466 5 0 5 -5 2 -10
-5 -8 -9 -1018 -5 -1209 0 -21 22 -2 139 115 77 76 137 143 134 148 -4 5 -1 6
4 3 14 -9 37 19 28 32 -3 6 0 9 7 6 8 -3 101 82 223 205 l210 209 1 423 0 422
-173 173 c-101 101 -179 171 -185 167 -6 -4 -8 -3 -4 4 8 14 -151 175 -166
166 -7 -4 -8 -3 -4 4 7 12 -131 159 -146 155 -4 -2 -7 3 -5 10 1 6 -4 11 -11
9 -8 -1 -11 1 -8 6 4 8 -14 29 -39 44 -6 4 -9 -75 -8 -210z m357 -418 c3 -8 2
-12 -4 -9 -6 3 -10 10 -10 16 0 14 7 11 14 -7z m-178 -29 c-1 -8 -5 -17 -8
-21 -5 -4 -4 16 1 34 3 9 9 -1 7 -13z m-71 -184 c-9 -8 -36 -10 -30 -2 2 4 11
8 20 8 8 0 13 -3 10 -6z m150 -129 c-3 -3 -11 0 -18 7 -9 10 -8 11 6 5 10 -3
15 -9 12 -12z m416 -139 c13 -16 12 -17 -3 -4 -10 7 -18 15 -18 17 0 8 8 3 21
-13z m-526 -72 c-9 -8 -36 -10 -30 -2 2 4 11 8 20 8 8 0 13 -3 10 -6z m511
-116 c-1 -8 -5 -17 -8 -21 -5 -4 -4 16 1 34 3 9 9 -1 7 -13z m-511 -204 c-9
-8 -36 -10 -30 -2 2 4 11 8 20 8 8 0 13 -3 10 -6z m241 -3 c3 -4 -1 -5 -10 -4
-8 1 -18 5 -22 8 -3 4 1 5 10 4 8 -1 18 -5 22 -8z m188 -16 c3 -5 -1 -9 -9 -9
-8 0 -12 4 -9 9 3 4 7 8 9 8 2 0 6 -4 9 -8z m-429 -301 c-9 -8 -36 -10 -30 -2
2 4 11 8 20 8 8 0 13 -3 10 -6z"/>
<path d="M3692 3124 c-77 -77 -121 -128 -116 -135 4 -8 3 -9 -4 -5 -7 4 -108
-89 -249 -229 l-238 -237 -1 -131 c-1 -84 3 -137 10 -146 7 -10 7 -13 0 -8
-13 8 -13 -211 0 -232 6 -9 5 -12 -1 -8 -13 8 -12 -212 1 -232 6 -9 5 -12 -1
-8 -12 8 -11 -212 1 -232 6 -9 5 -12 -1 -8 -13 8 -12 -212 1 -232 6 -9 5 -12
-1 -8 -12 8 -12 -212 1 -232 6 -9 5 -12 0 -8 -6 3 -10 -112 -10 -307 l0 -312
168 0 c110 -1 165 2 161 9 -4 6 -1 7 8 1 22 -14 240 -14 232 0 -5 8 -3 8 8 0
17 -13 157 -16 164 -4 3 5 5 139 5 297 0 306 1 1562 1 2125 1 185 -1 341 -4
345 -3 5 -2 15 3 23 8 14 3 41 -9 39 -3 -1 -61 -57 -129 -125z m-322 -378 c0
-2 -7 -7 -16 -10 -8 -3 -12 -2 -9 4 6 10 25 14 25 6z m-5 -354 c-3 -3 -11 0
-18 7 -9 10 -8 11 6 5 10 -3 15 -9 12 -12z m16 -265 c-10 -9 -11 -8 -5 6 3 10
9 15 12 12 3 -3 0 -11 -7 -18z m310 -4 c13 -16 12 -17 -3 -4 -17 13 -22 21
-14 21 2 0 10 -8 17 -17z m-245 -18 c-1 -8 -5 -17 -8 -21 -5 -4 -4 16 1 34 3
9 9 -1 7 -13z m-235 -62 c13 -16 12 -17 -3 -4 -17 13 -22 21 -14 21 2 0 10 -8
17 -17z m210 -236 c-10 -9 -11 -8 -5 6 3 10 9 15 12 12 3 -3 0 -11 -7 -18z
m270 -4 c13 -16 12 -17 -3 -4 -17 13 -22 21 -14 21 2 0 10 -8 17 -17z m-310
-316 c-10 -9 -11 -8 -5 6 3 10 9 15 12 12 3 -3 0 -11 -7 -18z m310 -4 c13 -16
12 -17 -3 -4 -17 13 -22 21 -14 21 2 0 10 -8 17 -17z m-245 -18 c-1 -8 -5 -17
-8 -21 -5 -4 -4 16 1 34 3 9 9 -1 7 -13z m-231 -65 c3 -6 -1 -7 -9 -4 -18 7
-21 14 -7 14 6 0 13 -4 16 -10z m206 -233 c-10 -9 -11 -8 -5 6 3 10 9 15 12
12 3 -3 0 -11 -7 -18z m270 -4 c13 -16 12 -17 -3 -4 -10 7 -18 15 -18 17 0 8
8 3 21 -13z m-316 -363 c-3 -5 -12 -10 -18 -10 -7 0 -6 4 3 10 19 12 23 12 15
0z m165 -34 c0 -2 -8 -10 -17 -17 -16 -13 -17 -12 -4 4 13 16 21 21 21 13z"/>
<path d="M2050 2461 c0 -38 4 -61 13 -64 10 -4 10 -6 0 -6 -8 -1 -13 -15 -13
-35 0 -19 6 -37 13 -39 10 -4 10 -6 0 -6 -10 -1 -13 -32 -13 -122 0 -106 2
-120 15 -109 8 7 12 16 9 21 -3 5 -1 8 5 7 16 -4 92 73 84 86 -3 6 -2 8 2 3
11 -10 56 33 48 46 -3 6 -1 7 4 4 6 -4 22 5 37 20 30 29 32 24 -48 104 -37 38
-54 49 -41 30 5 -10 -11 -24 -31 -27 -13 -2 -13 21 0 33 4 4 6 4 4 -2 -1 -5 2
-11 7 -12 6 -2 10 5 10 15 -1 9 -7 16 -14 14 -7 -1 -10 1 -7 6 3 5 -7 20 -22
33 -20 18 -23 19 -9 3 14 -17 14 -21 2 -21 -8 0 -12 4 -9 8 2 4 0 10 -5 14 -6
3 -7 13 -4 22 5 13 2 15 -11 10 -9 -4 -15 -3 -11 2 3 5 1 12 -5 16 -6 4 -10
-16 -10 -54z m65 -40 c-9 -8 -36 -10 -30 -2 2 4 11 8 20 8 8 0 13 -3 10 -6z
m-9 -56 c-1 -8 -8 -21 -16 -28 -10 -10 -11 -9 -4 3 5 8 9 18 10 23 3 14 4 17
8 17 2 0 3 -7 2 -15z m81 1 c0 -8 -5 -14 -11 -13 -6 1 -11 -8 -10 -19 1 -15
-4 -21 -15 -19 -21 3 -43 -14 -34 -28 3 -5 1 -7 -5 -4 -18 12 -7 42 16 42 12
0 21 3 20 6 -3 6 31 49 37 49 1 0 2 -6 2 -14z m26 -28 c-6 -7 -9 -21 -7 -31 1
-11 0 -16 -3 -13 -4 3 -12 1 -19 -5 -9 -7 -14 -6 -20 3 -4 7 -4 10 1 6 4 -4
14 -3 22 3 11 10 11 15 1 27 -9 11 -9 14 -1 9 6 -4 14 -3 18 3 3 5 9 10 12 10
3 0 1 -6 -4 -12z m33 -32 c1 -7 -4 -13 -11 -13 -7 0 -11 7 -10 16 2 9 4 18 4
20 2 8 15 -10 17 -23z m-159 -19 c0 -8 -6 -14 -14 -14 -9 0 -10 4 -2 14 6 7
12 13 14 13 1 0 2 -6 2 -13z m137 -16 c-3 -3 -10 -7 -15 -7 -5 -1 -11 -3 -14
-4 -3 -1 -14 -4 -25 -5 -11 -1 -22 -4 -25 -5 -3 -1 -9 -4 -15 -5 -5 -1 -11 -4
-12 -5 -6 -5 -58 -6 -52 -1 3 3 15 6 27 6 12 1 21 6 20 11 -1 6 15 10 38 9 22
-1 42 1 44 5 2 4 11 7 20 7 8 0 12 -3 9 -6z m-57 -45 c0 -8 -5 -14 -11 -13 -6
1 -9 -5 -8 -13 2 -8 0 -12 -4 -8 -4 4 -12 3 -19 -2 -8 -7 -12 -5 -12 5 0 7 5
13 11 12 6 -1 10 4 8 11 -1 8 2 11 7 8 5 -4 12 -2 16 4 8 14 12 13 12 -4z
m-72 -16 c4 -6 1 -9 -7 -8 -7 2 -12 -3 -10 -10 1 -8 -2 -11 -8 -7 -8 5 -7 11
1 21 14 17 16 17 24 4z m47 -42 c-7 -7 -18 -13 -25 -13 -7 -1 -10 -7 -9 -15 2
-8 0 -12 -4 -8 -4 4 -13 3 -20 -3 -9 -7 -14 -6 -20 3 -4 7 -4 10 1 6 10 -10
37 11 30 23 -3 4 3 6 15 4 11 -2 22 0 25 6 4 5 9 9 13 9 3 0 0 -6 -6 -12z"/>
<path d="M2800 2389 c0 -5 -4 -7 -10 -4 -9 6 -14 -8 -11 -27 0 -5 -2 -7 -6 -6
-14 5 -73 -54 -66 -65 3 -6 2 -7 -4 -4 -11 7 -120 -102 -115 -116 1 -5 -1 -6
-6 -3 -4 2 -22 -10 -40 -29 -20 -20 -29 -36 -23 -40 6 -3 11 -12 11 -18 0 -7
-5 -4 -11 6 -11 19 -29 23 -29 6 0 -15 -26 -39 -34 -32 -3 4 -6 -2 -6 -12 0
-10 -3 -15 -6 -12 -7 7 -54 -42 -54 -56 0 -5 -4 -5 -10 -2 -5 3 -10 -2 -10
-11 0 -10 -3 -15 -6 -12 -7 8 -54 -36 -54 -51 0 -6 -6 -11 -14 -11 -9 0 -13
-7 -11 -20 2 -11 0 -20 -6 -20 -5 0 -9 5 -9 11 0 8 -5 8 -15 -1 -8 -7 -12 -16
-9 -21 3 -5 -1 -9 -9 -9 -8 0 -22 -9 -32 -20 -10 -11 -13 -20 -7 -20 7 0 12
-4 12 -9 0 -6 -9 -8 -20 -6 -13 2 -20 -2 -20 -11 0 -8 -5 -14 -11 -14 -15 0
-59 -47 -51 -54 3 -3 -2 -6 -12 -6 -9 0 -21 -12 -26 -26 -13 -33 -13 -37 2
-28 7 5 8 3 2 -7 -12 -19 -12 -479 0 -472 5 4 6 0 0 -8 -5 -8 -9 -168 -9 -357
0 -270 3 -341 13 -337 6 2 12 0 12 -6 0 -6 5 -7 12 -3 6 4 8 3 5 -4 -4 -5 -15
-8 -25 -5 -11 3 -19 -1 -19 -9 0 -9 14 -13 44 -13 24 0 43 4 43 8 0 5 6 5 13
0 16 -10 97 -11 91 -1 -3 5 0 8 5 8 6 0 11 -4 11 -8 0 -5 7 -9 15 -9 8 0 12 4
9 9 -3 4 0 8 5 8 6 0 11 -4 11 -8 0 -5 7 -9 15 -9 8 0 12 4 9 9 -3 4 0 8 5 8
6 0 11 -4 11 -10 0 -5 5 -10 11 -10 5 0 7 4 4 10 -3 6 -1 10 4 10 6 0 11 -3
11 -8 0 -4 27 -7 59 -7 33 0 57 3 55 7 -3 5 0 8 5 8 6 0 11 -4 11 -8 0 -5 7
-9 15 -9 8 0 12 4 9 9 -3 4 0 8 5 8 6 0 11 -4 11 -10 0 -5 5 -10 10 -10 7 0 7
7 0 23 -10 20 -9 20 9 -3 17 -20 21 -22 21 -7 0 9 4 17 10 17 5 0 7 -6 5 -13
-4 -9 9 -12 50 -12 30 0 55 4 55 8 0 5 6 5 13 0 16 -10 87 -12 87 -2 0 4 -8
10 -17 12 -15 4 -15 5 -2 6 13 1 16 14 17 68 0 43 -3 61 -9 52 -5 -9 -9 -10
-9 -2 0 6 5 15 10 18 6 3 10 26 10 51 0 28 -4 43 -10 39 -5 -3 -10 -1 -10 5 0
6 -5 8 -12 4 -7 -4 -8 -3 -4 4 4 6 13 9 21 5 11 -4 15 2 15 22 0 14 -4 24 -9
21 -5 -3 -11 1 -14 9 -4 9 -1 12 9 8 11 -4 14 4 14 32 0 20 -4 34 -8 31 -5 -3
-9 1 -9 9 0 8 4 12 9 9 4 -3 8 16 8 41 0 34 -3 44 -12 39 -10 -6 -10 -5 -1 7
16 21 14 199 -3 199 -18 0 -27 17 -13 26 8 4 9 3 5 -4 -4 -7 -1 -12 8 -12 9 0
16 7 16 15 0 8 -4 15 -10 15 -5 0 -10 5 -10 11 0 5 4 8 8 5 5 -3 9 20 10 51 0
36 -3 51 -9 42 -14 -22 -11 -1 4 22 10 17 10 23 0 26 -7 3 -13 9 -13 14 0 6 5
7 10 4 6 -4 10 8 10 30 0 26 -3 34 -12 29 -10 -6 -10 -5 -2 7 7 8 12 43 13 79
0 45 -2 60 -9 50 -6 -9 -10 -10 -10 -3 0 6 5 15 10 18 6 3 10 26 10 51 0 28
-4 43 -10 39 -5 -3 -10 -1 -10 5 0 6 -5 8 -12 4 -7 -4 -8 -3 -4 4 4 6 13 9 21
5 11 -4 15 2 15 22 0 14 -4 24 -9 21 -5 -3 -11 1 -14 9 -4 9 -1 12 9 8 11 -4
14 4 14 32 0 20 -4 34 -8 31 -5 -3 -9 1 -9 9 0 8 4 12 9 9 4 -3 8 16 8 41 0
34 -3 44 -12 39 -10 -6 -10 -5 -1 7 16 21 14 199 -3 199 -18 0 -27 17 -13 26
8 4 9 3 5 -4 -4 -7 -1 -12 8 -12 9 0 16 7 16 15 0 8 -4 15 -10 15 -5 0 -10 5
-10 11 0 5 4 8 9 5 4 -3 8 26 8 65 0 39 -3 65 -7 59 -5 -8 -9 -7 -13 4 -4 9
-1 15 6 13 17 -3 21 51 5 71 -9 11 -10 14 0 8 8 -5 12 2 12 23 0 17 -2 31 -5
31 -3 0 -5 -5 -5 -11z m-60 -89 c0 -5 -5 -10 -11 -10 -5 0 -7 5 -4 10 3 6 8
10 11 10 2 0 4 -4 4 -10z m55 -8 c-3 -3 -11 0 -18 7 -9 10 -8 11 6 5 10 -3 15
-9 12 -12z m-25 -12 c0 -5 -4 -10 -10 -10 -5 0 -10 5 -10 10 0 6 5 10 10 10 6
0 10 -4 10 -10z m-77 -28 c-10 -10 -20 -17 -22 -16 -6 5 20 34 30 34 5 0 1 -8
-8 -18z m41 3 c-4 -8 -13 -15 -21 -15 -8 0 -11 -5 -7 -12 5 -7 3 -8 -6 -3 -10
6 -7 12 11 26 29 23 30 23 23 4z m36 -5 c0 -5 -5 -10 -11 -10 -5 0 -7 5 -4 10
3 6 8 10 11 10 2 0 4 -4 4 -10z m-100 -45 c0 -5 -5 -3 -10 5 -5 8 -10 20 -10
25 0 6 5 3 10 -5 5 -8 10 -19 10 -25z m85 15 c3 -6 -1 -7 -9 -4 -18 7 -21 14
-7 14 6 0 13 -4 16 -10z m40 0 c3 -6 -1 -7 -9 -4 -18 7 -21 14 -7 14 6 0 13
-4 16 -10z m-147 -22 c-2 -6 -10 -13 -16 -14 -7 -1 -8 0 -2 3 5 2 8 9 4 14 -3
5 0 9 6 9 7 0 10 -5 8 -12z m97 2 c4 -6 -1 -7 -11 -3 -13 5 -15 3 -9 -7 5 -9
4 -11 -3 -6 -7 4 -12 11 -12 17 0 12 27 12 35 -1z m41 -2 c4 -7 4 -10 -1 -6
-4 4 -14 0 -22 -10 -13 -15 -13 -15 -3 6 12 25 16 27 26 10z m-82 -13 c3 -8 1
-15 -4 -15 -6 0 -10 7 -10 15 0 8 2 15 4 15 2 0 6 -7 10 -15z m-34 -5 c0 -5
-5 -10 -11 -10 -5 0 -7 5 -4 10 3 6 8 10 11 10 2 0 4 -4 4 -10z m122 -7 c-6
-2 -9 -10 -6 -15 4 -7 2 -8 -5 -4 -13 9 -5 26 12 25 9 0 8 -2 -1 -6z m-137
-21 c-3 -3 -11 0 -18 7 -9 10 -8 11 6 5 10 -3 15 -9 12 -12z m113 -14 c3 2 7
-1 9 -7 1 -7 0 -8 -4 -1 -2 5 -9 8 -13 5 -5 -3 -14 5 -20 17 -11 22 -11 22 5
3 9 -11 19 -19 23 -17z m-71 16 c-3 -3 -12 -4 -19 -1 -8 3 -5 6 6 6 11 1 17
-2 13 -5z m-88 -22 c-14 -9 -23 -24 -21 -34 4 -20 -14 -33 -24 -17 -5 8 -3 9
6 4 10 -6 12 -3 7 14 -3 14 0 24 9 28 8 3 12 8 10 12 -3 4 5 8 17 8 20 2 20 1
-4 -15z m44 -9 c-7 -2 -19 -2 -25 0 -7 3 -2 5 12 5 14 0 19 -2 13 -5z m44 1
c-3 -3 -12 -4 -19 -1 -8 3 -5 6 6 6 11 1 17 -2 13 -5z m48 -20 c0 -10 6 -24
14 -30 11 -9 12 -12 1 -19 -8 -5 -11 -4 -7 2 4 6 1 13 -7 16 -9 4 -12 14 -9
28 4 15 2 20 -5 15 -6 -3 -13 -2 -16 3 -4 5 2 8 11 7 10 -2 18 -11 18 -22z
m-192 -5 c-8 -8 -13 -7 -18 2 -5 8 -4 10 3 5 7 -4 12 -2 12 5 0 7 3 9 7 6 4
-4 2 -12 -4 -18z m77 7 c0 -2 -7 -7 -16 -10 -8 -3 -12 -2 -9 4 6 10 25 14 25
6z m40 -11 c0 -8 -2 -15 -4 -15 -2 0 -6 7 -10 15 -3 8 -1 15 4 15 6 0 10 -7
10 -15z m34 0 c-4 -8 -8 -15 -10 -15 -2 0 -4 7 -4 15 0 8 4 15 10 15 5 0 7 -7
4 -15z m-54 -15 c0 -5 -4 -10 -10 -10 -5 0 -10 5 -10 10 0 6 5 10 10 10 6 0
10 -4 10 -10z m74 -6 c3 -8 2 -12 -4 -9 -6 3 -10 10 -10 16 0 14 7 11 14 -7z
m-104 -37 c-8 -9 -9 -7 -4 7 5 13 4 17 -4 12 -6 -3 -14 -1 -18 5 -4 8 -3 9 4
5 7 -4 12 -1 12 6 0 8 5 5 11 -5 8 -14 8 -22 -1 -30z m43 16 c-5 -12 -3 -14 7
-8 9 6 11 4 5 -4 -5 -9 -11 -9 -17 -3 -6 6 -7 15 -4 21 11 17 16 13 9 -6z m42
-1 c-3 -3 -11 0 -18 7 -9 10 -8 11 6 5 10 -3 15 -9 12 -12z m-120 -13 c-4 -5
-12 -9 -18 -8 -9 0 -8 2 1 6 6 2 9 10 6 15 -4 7 -2 8 5 4 6 -4 9 -12 6 -17z
m160 1 c4 -6 -1 -7 -11 -3 -11 4 -15 3 -10 -5 3 -6 1 -14 -5 -18 -8 -4 -9 -3
-5 4 4 7 1 12 -6 12 -9 0 -9 3 2 10 19 12 27 12 35 0z m41 -2 c4 -7 4 -10 -1
-6 -4 4 -14 0 -22 -10 -13 -15 -13 -15 -3 6 12 25 16 27 26 10z m-319 -30 c-3
-7 -5 -2 -5 12 0 14 2 19 5 13 2 -7 2 -19 0 -25z m83 11 c0 -4 -10 -6 -21 -4
-32 6 -34 13 -4 13 14 0 25 -4 25 -9z m106 -4 c4 -8 10 -12 16 -9 5 3 15 3 23
0 18 -6 10 -32 -13 -41 -13 -5 -12 -1 4 16 19 22 19 22 -4 16 -14 -3 -25 0
-31 11 -9 15 -11 15 -26 -3 -16 -20 -16 -19 -5 3 12 25 28 29 36 7z m136 -2
c-6 -2 -9 -10 -6 -15 4 -7 2 -8 -5 -4 -13 9 -5 26 12 25 9 0 8 -2 -1 -6z
m-342 -13 c0 -5 -7 -7 -15 -4 -8 4 -15 8 -15 10 0 2 7 4 15 4 8 0 15 -4 15
-10z m149 -13 c0 -9 -2 -8 -6 1 -2 6 -10 9 -15 6 -7 -4 -8 -2 -4 5 9 13 26 5
25 -12z m149 -8 c-3 -8 -7 -3 -11 10 -4 17 -3 21 5 13 5 -5 8 -16 6 -23z
m-158 -16 c0 -1 -5 -5 -12 -9 -6 -4 -8 -3 -5 3 4 6 0 13 -8 17 -8 3 -15 10
-15 16 0 5 9 2 20 -7 11 -10 20 -18 20 -20z m-160 23 c0 -2 -7 -7 -16 -10 -8
-3 -12 -2 -9 4 6 10 25 14 25 6z m36 -13 c-2 -10 -11 -18 -22 -18 -10 0 -25
-7 -32 -15 -11 -13 -11 -12 -3 7 8 15 17 20 31 16 12 -3 20 -2 19 3 -2 13 0
24 5 24 2 0 3 -8 2 -17z m60 5 c4 -7 4 -10 -1 -6 -4 4 -13 0 -20 -9 -9 -13
-14 -13 -20 -3 -5 9 -4 11 3 6 7 -4 12 -1 12 8 0 19 16 21 26 4z m124 -3 c0
-8 -2 -15 -4 -15 -2 0 -6 7 -10 15 -3 8 -1 15 4 15 6 0 10 -7 10 -15z m117 -7
c-3 -8 -6 -5 -6 6 -1 11 2 17 5 13 3 -3 4 -12 1 -19z m-221 -7 c-3 -5 1 -11 9
-15 8 -3 15 -10 15 -16 0 -5 -9 -2 -19 7 -17 14 -20 33 -5 33 3 0 3 -4 0 -9z
m62 -17 c0 -17 -3 -22 -8 -13 -5 6 -6 18 -3 26 8 19 11 16 11 -13z m122 16 c0
-5 -4 -10 -10 -10 -5 0 -10 5 -10 10 0 6 5 10 10 10 6 0 10 -4 10 -10z m-343
-32 c-3 -7 -5 -2 -5 12 0 14 2 19 5 13 2 -7 2 -19 0 -25z m97 0 c-5 -8 -1 -9
12 -4 14 5 16 4 7 -4 -8 -9 -16 -9 -30 -1 -10 6 -13 11 -5 11 7 0 10 5 6 12
-4 7 -3 8 5 4 6 -4 8 -12 5 -18z m186 12 c0 -5 -4 -10 -10 -10 -5 0 -10 5 -10
10 0 6 5 10 10 10 6 0 10 -4 10 -10z m30 0 c0 -5 -5 -10 -11 -10 -5 0 -7 5 -4
10 3 6 8 10 11 10 2 0 4 -4 4 -10z m90 0 c0 -5 -4 -10 -10 -10 -5 0 -10 5 -10
10 0 6 5 10 10 10 6 0 10 -4 10 -10z m-347 -15 c-3 -9 -8 -14 -10 -11 -3 3 -2
9 2 15 9 16 15 13 8 -4z m-73 -5 c0 -5 -7 -7 -15 -4 -10 4 -13 0 -10 -16 2
-12 -2 -23 -10 -27 -8 -3 -12 -10 -8 -16 3 -6 1 -7 -5 -3 -16 10 -15 26 2 26
8 0 13 8 11 18 -1 9 0 20 2 25 6 10 33 9 33 -3z m165 -6 c-18 -14 -18 -16 -3
-25 10 -6 14 -16 10 -31 -4 -16 -2 -19 8 -13 9 5 11 4 6 -4 -10 -16 -28 -3
-24 17 2 10 -3 23 -12 30 -13 11 -13 14 4 27 11 8 22 15 25 15 3 0 -3 -8 -14
-16z m195 6 c0 -5 -4 -10 -10 -10 -5 0 -10 5 -10 10 0 6 5 10 10 10 6 0 10 -4
10 -10z m-313 -22 c-3 -8 -6 -5 -6 6 -1 11 2 17 5 13 3 -3 4 -12 1 -19z m230
2 c-1 -12 -5 -16 -10 -11 -5 5 -6 14 -3 20 11 16 15 13 13 -9z m46 1 c-4 -3
-11 -10 -15 -15 -4 -4 -6 1 -5 12 1 12 6 18 15 15 7 -3 10 -9 5 -12z m-311
-23 c-6 -6 -12 -6 -17 3 -5 8 -4 10 3 5 7 -4 12 0 13 11 0 12 2 13 6 5 3 -8 1
-18 -5 -24z m88 22 c0 -5 -4 -10 -10 -10 -5 0 -10 5 -10 10 0 6 5 10 10 10 6
0 10 -4 10 -10z m295 -1 c11 -16 1 -19 -13 -3 -7 8 -8 14 -3 14 5 0 13 -5 16
-11z m-38 -14 c0 -8 -4 -15 -9 -15 -10 0 -11 14 -1 23 9 10 10 9 10 -8z m-267
-11 c0 -2 -7 -4 -15 -4 -8 0 -15 4 -15 10 0 5 7 7 15 4 8 -4 15 -8 15 -10z
m45 7 c3 -5 0 -13 -6 -17 -8 -5 -9 -3 -4 6 6 10 4 12 -9 7 -10 -4 -15 -3 -11
3 8 13 22 13 30 1z m81 -3 c4 -7 3 -8 -4 -4 -7 4 -12 2 -12 -5 0 -7 -3 -10 -6
-6 -6 5 3 27 11 27 2 0 7 -5 11 -12z m40 0 c4 -7 3 -8 -4 -4 -11 7 -17 -6 -13
-27 1 -5 -3 -6 -9 -2 -7 4 -7 12 0 26 12 22 16 23 26 7z m-209 -30 c-3 -7 -5
-2 -5 12 0 14 2 19 5 13 2 -7 2 -19 0 -25z m-27 2 c-6 -11 -13 -20 -16 -20 -2
0 0 9 6 20 6 11 13 20 16 20 2 0 0 -9 -6 -20z m307 13 c-9 -8 -47 -11 -47 -4
0 5 11 9 25 9 14 0 24 -2 22 -5z m77 -5 c-3 -4 -11 -5 -19 -1 -21 7 -19 12 4
10 11 0 18 -5 15 -9z m-51 -13 c-3 -9 -8 -14 -10 -11 -3 3 -2 9 2 15 9 16 15
13 8 -4z m-456 -27 c-4 -16 -2 -19 13 -15 10 2 25 -4 34 -14 9 -11 12 -19 6
-19 -5 0 -13 6 -17 13 -4 6 -17 12 -27 12 -14 0 -20 7 -20 27 -1 14 2 24 7 21
5 -3 6 -14 4 -25z m39 23 c-3 -5 1 -12 10 -15 9 -4 14 -9 11 -13 -9 -8 -38 17
-31 28 3 5 7 9 10 9 3 0 3 -4 0 -9z m64 -34 c0 -4 5 -5 12 -1 7 5 8 3 3 -6 -6
-10 -11 -9 -22 5 -7 11 -13 23 -13 28 0 4 -5 5 -12 1 -7 -5 -8 -3 -3 6 6 10
11 9 22 -5 7 -11 13 -23 13 -28z m90 39 c0 -2 -7 -6 -15 -10 -8 -3 -15 -1 -15
4 0 6 7 10 15 10 8 0 15 -2 15 -4z m30 -6 c0 -5 -2 -10 -4 -10 -3 0 -8 5 -11
10 -3 6 -1 10 4 10 6 0 11 -4 11 -10z m97 -22 c-5 -16 -2 -19 14 -15 11 3 23
-1 28 -11 9 -15 11 -15 26 3 16 20 16 19 5 -2 -12 -26 -25 -29 -37 -10 -4 6
-17 12 -27 12 -14 0 -20 7 -20 27 -1 14 2 24 7 21 5 -3 6 -14 4 -25z m158 23
c-3 -5 4 -13 16 -16 11 -4 18 -9 16 -12 -9 -8 -48 18 -42 28 4 5 8 9 11 9 3 0
3 -4 -1 -9z m54 -14 c0 -9 -2 -8 -6 1 -2 6 -10 9 -15 6 -7 -4 -8 -2 -4 5 9 13
26 5 25 -12z m-277 -1 c7 4 8 2 4 -5 -4 -6 -12 -8 -18 -5 -8 5 -9 1 -4 -12 5
-14 4 -16 -4 -8 -6 6 -7 19 -3 29 4 11 8 14 11 7 2 -7 9 -9 14 -6z m128 -1 c0
-8 -4 -15 -10 -15 -5 0 -7 7 -4 15 4 8 8 15 10 15 2 0 4 -7 4 -15z m-237 -12
c-3 -7 -6 -13 -8 -13 -2 0 -5 6 -8 13 -3 8 1 14 8 14 7 0 11 -6 8 -14z m52 7
c-3 -5 -11 -10 -16 -10 -6 0 -7 5 -4 10 3 6 11 10 16 10 6 0 7 -4 4 -10z m228
-7 c-5 -12 -3 -14 7 -8 9 5 11 4 6 -4 -4 -6 -12 -9 -17 -6 -12 8 -12 35 1 35
5 0 6 -7 3 -17z m-466 0 c-4 -3 1 -12 11 -20 15 -13 15 -13 -6 -3 -19 9 -23
30 -5 30 4 0 3 -3 0 -7z m515 -7 c7 4 8 2 4 -5 -9 -13 -26 -5 -25 12 0 9 2 8
6 -1 2 -6 10 -9 15 -6z m-395 -3 c-4 -3 1 -12 11 -20 15 -13 15 -13 -6 -3 -19
9 -23 30 -5 30 4 0 3 -3 0 -7z m218 -23 c-3 -4 0 -11 5 -13 7 -4 6 -5 0 -3 -7
1 -10 5 -8 8 2 4 -6 14 -17 23 -19 16 -19 16 3 5 12 -6 20 -15 17 -20z m-108
-3 c2 -3 -8 -4 -22 -4 -14 0 -25 3 -25 8 0 7 38 4 47 -4z m61 -1 c-10 -7 -14
-17 -10 -21 4 -5 1 -5 -7 0 -12 7 -11 10 4 22 24 17 36 17 13 -1z m262 -1 c0
-1 -12 -2 -26 -2 -17 0 -22 2 -13 7 10 7 39 3 39 -5z m-492 -20 c-3 -3 -9 2
-12 12 -6 14 -5 15 5 6 7 -7 10 -15 7 -18z m-40 1 c-7 -8 -15 -12 -17 -11 -5
6 10 25 20 25 5 0 4 -6 -3 -14z m95 -3 c-4 -10 -2 -14 5 -9 6 3 14 1 18 -5 4
-8 3 -9 -4 -5 -7 4 -12 1 -12 -6 0 -8 -5 -6 -11 5 -5 9 -7 22 -4 27 10 16 15
12 8 -7z m49 10 c-6 -2 -9 -10 -6 -15 4 -7 2 -8 -5 -4 -13 9 -5 26 12 25 9 0
8 -2 -1 -6z m95 -13 c10 -13 8 -16 -10 -17 -12 0 -17 1 -10 4 7 2 9 12 6 21
-6 18 -5 17 14 -8z m59 8 c4 -7 3 -8 -4 -4 -7 4 -12 2 -12 -5 0 -7 -3 -10 -6
-6 -6 5 3 27 11 27 2 0 7 -5 11 -12z m75 -20 c-10 -11 -11 -9 -5 6 6 15 4 17
-6 11 -9 -6 -11 -4 -5 4 5 9 10 10 18 2 8 -8 7 -14 -2 -23z m42 15 c-4 -10 -2
-14 5 -9 6 3 14 1 18 -5 4 -8 3 -9 -4 -5 -7 4 -12 1 -12 -6 0 -8 -5 -6 -11 5
-5 9 -7 22 -4 27 10 16 15 12 8 -7z m49 10 c-6 -2 -9 -10 -6 -15 4 -7 2 -8 -5
-4 -13 9 -5 26 12 25 9 0 8 -2 -1 -6z m-411 -26 c-10 -9 -11 -8 -5 6 3 10 9
15 12 12 3 -3 0 -11 -7 -18z m-95 1 c4 -6 3 -8 -3 -5 -6 4 -13 0 -16 -8 -4 -8
-15 -12 -27 -10 -16 3 -20 0 -16 -10 3 -8 1 -15 -5 -15 -6 0 -9 8 -7 18 2 10
12 17 26 16 12 -1 22 4 22 12 0 17 16 18 26 2z m64 2 c0 -5 -2 -10 -4 -10 -3
0 -8 5 -11 10 -3 6 -1 10 4 10 6 0 11 -4 11 -10z m325 0 c3 -6 -1 -7 -9 -4
-18 7 -21 14 -7 14 6 0 13 -4 16 -10z m205 0 c0 -5 -5 -10 -11 -10 -5 0 -7 5
-4 10 3 6 8 10 11 10 2 0 4 -4 4 -10z m-235 -11 c11 -16 1 -19 -13 -3 -7 8 -8
14 -3 14 5 0 13 -5 16 -11z m-340 -9 c-3 -5 -2 -10 4 -10 5 0 12 6 14 13 4 9
6 9 6 0 1 -15 -16 -26 -29 -18 -10 6 -5 25 6 25 3 0 2 -4 -1 -10z m105 0 c0
-5 -4 -10 -10 -10 -5 0 -10 5 -10 10 0 6 5 10 10 10 6 0 10 -4 10 -10z m66 -2
c5 -7 3 -8 -6 -3 -10 6 -12 3 -8 -12 4 -13 -2 -27 -13 -37 -11 -9 -19 -11 -19
-6 0 6 7 13 15 16 8 4 12 10 9 16 -6 9 2 38 10 38 3 0 8 -5 12 -12z m54 2 c0
-5 -4 -10 -10 -10 -5 0 -10 5 -10 10 0 6 5 10 10 10 6 0 10 -4 10 -10z m75
-11 c-6 -32 -12 -34 -12 -4 0 14 3 25 8 25 4 0 6 -10 4 -21z m125 11 c0 -5 -4
-10 -10 -10 -5 0 -10 5 -10 10 0 6 5 10 10 10 6 0 10 -4 10 -10z m66 -2 c5 -7
3 -8 -6 -3 -10 6 -12 3 -8 -12 4 -13 -2 -27 -13 -37 -11 -9 -19 -11 -19 -6 0
6 7 13 15 16 8 4 12 10 9 16 -6 9 2 38 10 38 3 0 8 -5 12 -12z m54 2 c0 -5 -4
-10 -10 -10 -5 0 -10 5 -10 10 0 6 5 10 10 10 6 0 10 -4 10 -10z m-500 -15 c0
-8 -4 -15 -10 -15 -5 0 -7 7 -4 15 4 8 8 15 10 15 2 0 4 -7 4 -15z m34 0 c3
-8 1 -15 -4 -15 -6 0 -10 7 -10 15 0 8 2 15 4 15 2 0 6 -7 10 -15z m286 0 c0
-8 -4 -15 -10 -15 -5 0 -7 7 -4 15 4 8 8 15 10 15 2 0 4 -7 4 -15z m34 0 c3
-8 1 -15 -4 -15 -6 0 -10 7 -10 15 0 8 2 15 4 15 2 0 6 -7 10 -15z m-269 -5
c-3 -5 -12 -10 -18 -10 -7 0 -6 4 3 10 19 12 23 12 15 0z m58 -5 c-3 -9 -8
-14 -10 -11 -3 3 -2 9 2 15 9 16 15 13 8 -4z m81 7 c-5 -4 -12 -11 -15 -15 -3
-5 -9 -2 -12 5 -3 9 3 14 15 15 11 1 16 -1 12 -5z m176 -2 c0 -5 -5 -10 -11
-10 -5 0 -7 5 -4 10 3 6 8 10 11 10 2 0 4 -4 4 -10z m-220 -10 c0 -5 -5 -10
-11 -10 -5 0 -7 5 -4 10 3 6 8 10 11 10 2 0 4 -4 4 -10z m114 -6 c3 -8 2 -12
-4 -9 -6 3 -10 10 -10 16 0 14 7 11 14 -7z m206 6 c0 -5 -5 -10 -11 -10 -5 0
-7 5 -4 10 3 6 8 10 11 10 2 0 4 -4 4 -10z m-585 -10 c-3 -5 -14 -10 -23 -9
-14 0 -13 2 3 9 27 11 27 11 20 0z m33 -4 c-10 -7 -15 -16 -11 -19 3 -4 -1 -9
-9 -12 -9 -4 -14 -14 -11 -25 6 -21 -12 -36 -23 -19 -5 8 -3 9 6 4 10 -6 12
-3 7 14 -3 14 0 24 9 28 8 3 12 9 9 13 -3 5 3 13 12 19 25 15 31 13 11 -3z
m-85 -3 c-7 -2 -19 -2 -25 0 -7 3 -2 5 12 5 14 0 19 -2 13 -5z m160 0 c-7 -2
-19 -2 -25 0 -7 3 -2 5 12 5 14 0 19 -2 13 -5z m44 1 c-3 -3 -12 -4 -19 -1 -8
3 -5 6 6 6 11 1 17 -2 13 -5z m270 0 c-3 -3 -12 -4 -19 -1 -8 3 -5 6 6 6 11 1
17 -2 13 -5z m46 -1 c-7 -2 -19 -2 -25 0 -7 3 -2 5 12 5 14 0 19 -2 13 -5z
m-233 -13 c-18 -12 -30 -13 -30 -2 0 4 10 9 22 9 18 2 20 0 8 -7z m50 6 c0 -2
-7 -7 -16 -10 -8 -3 -12 -2 -9 4 6 10 25 14 25 6z m40 0 c0 -2 -7 -7 -16 -10
-8 -3 -12 -2 -9 4 6 10 25 14 25 6z m10 -19 c-9 -7 -14 -19 -12 -29 2 -9 -1
-18 -5 -21 -14 -9 -8 39 8 55 8 9 16 14 19 11 3 -2 -2 -10 -10 -16z m230 15
c0 -4 -9 -8 -20 -9 -11 -1 -20 2 -20 5 0 4 9 8 20 9 11 1 20 -2 20 -5z m40 4
c0 -2 -7 -7 -16 -10 -8 -3 -12 -2 -9 4 6 10 25 14 25 6z m-620 -11 c0 -2 -10
-9 -22 -15 -22 -11 -22 -10 -4 4 21 17 26 19 26 11z m140 -21 c0 -2 -9 0 -20
6 -11 6 -20 13 -20 16 0 2 9 0 20 -6 11 -6 20 -13 20 -16z m320 0 c0 -2 -9 0
-20 6 -11 6 -20 13 -20 16 0 2 9 0 20 -6 11 -6 20 -13 20 -16z m-510 -6 c10
-21 10 -21 -3 -6 -8 10 -18 14 -22 10 -5 -4 -5 -1 -1 6 10 17 14 15 26 -10z
m144 13 c3 -4 -6 -6 -21 -3 -19 4 -24 2 -18 -8 5 -9 4 -11 -4 -6 -6 4 -9 12
-6 17 8 11 42 12 49 0z m176 -10 c7 -14 7 -22 0 -26 -6 -4 -10 -3 -9 2 4 21
-2 34 -13 27 -7 -4 -8 -3 -4 4 10 16 14 15 26 -7z m40 -3 c10 -21 10 -21 -3
-6 -8 10 -18 14 -22 10 -5 -4 -5 -1 -1 6 10 17 14 15 26 -10z m105 13 c3 -5 0
-13 -6 -17 -8 -4 -9 -3 -5 4 5 8 -1 12 -14 12 -13 0 -19 -4 -14 -12 4 -7 3 -8
-5 -4 -16 10 -4 26 19 26 10 0 21 -4 25 -9z m81 -3 c4 -7 4 -10 -1 -6 -4 4
-14 0 -22 -10 -13 -15 -13 -15 -3 6 12 25 16 27 26 10z m-348 -22 c-10 -7 -14
-17 -10 -21 4 -5 1 -5 -6 -1 -11 6 -10 12 5 26 10 9 20 15 23 13 3 -3 -3 -10
-12 -17z m50 -2 c0 -17 -3 -22 -8 -13 -5 6 -6 18 -3 26 8 19 11 16 11 -13z
m319 7 c0 -11 -5 -18 -9 -15 -4 3 -5 11 -1 19 7 21 12 19 10 -4z m76 4 c4 -8
3 -16 -1 -19 -4 -3 -9 4 -9 15 -2 23 3 25 10 4z m-143 -17 c10 -21 10 -21 -3
-6 -8 10 -18 14 -22 10 -5 -4 -5 -1 -1 6 10 17 14 15 26 -10z m-515 3 c3 -5 0
-13 -6 -17 -7 -4 -9 -3 -5 4 3 5 0 13 -6 15 -9 4 -10 6 -1 6 6 1 14 -3 18 -8z
m308 2 c-7 -2 -19 -2 -25 0 -7 3 -2 5 12 5 14 0 19 -2 13 -5z m320 0 c-7 -2
-19 -2 -25 0 -7 3 -2 5 12 5 14 0 19 -2 13 -5z m-590 -23 c-6 -22 -18 -26 -29
-8 -4 6 -3 8 3 5 6 -4 13 0 17 8 8 22 15 18 9 -5z m121 -9 c-1 -17 4 -21 17
-18 11 3 24 -4 34 -19 21 -32 19 -45 -3 -14 -9 14 -26 25 -37 25 -15 0 -19 6
-17 22 2 17 -1 21 -12 17 -9 -3 -16 -2 -16 4 0 6 8 9 18 7 10 -1 17 -11 16
-24z m81 9 c-3 -4 1 -11 7 -14 7 -3 3 -3 -9 0 -19 4 -22 2 -17 -13 5 -15 4
-16 -5 -3 -8 11 -7 18 4 26 8 6 11 15 7 19 -4 5 -1 5 6 1 7 -4 10 -11 7 -16z
m118 0 c-6 -22 -18 -26 -29 -8 -4 6 -3 8 3 5 6 -4 13 0 17 8 8 22 15 18 9 -5z
m125 -3 c2 -10 -1 -17 -7 -17 -6 0 -8 7 -5 15 5 11 2 13 -10 9 -9 -3 -16 -2
-16 4 0 17 35 6 38 -11z m76 1 c-5 -8 -1 -9 10 -5 10 4 15 3 11 -4 -4 -5 -15
-7 -26 -4 -15 5 -18 3 -13 -12 5 -15 4 -16 -5 -3 -8 11 -7 18 4 26 8 6 11 15
7 19 -4 5 -1 5 6 1 7 -4 9 -12 6 -18z m121 12 c-3 -5 0 -10 7 -10 8 0 5 -5 -5
-11 -14 -8 -22 -8 -30 1 -9 8 -8 10 6 4 10 -3 17 -3 16 2 -2 14 0 24 7 24 3 0
2 -4 -1 -10z m-561 -15 c3 -8 1 -15 -4 -15 -6 0 -10 7 -10 15 0 8 2 15 4 15 2
0 6 -7 10 -15z m320 0 c3 -8 1 -15 -4 -15 -6 0 -10 7 -10 15 0 8 2 15 4 15 2
0 6 -7 10 -15z m-454 -15 c0 -5 -5 -10 -11 -10 -5 0 -7 5 -4 10 3 6 8 10 11
10 2 0 4 -4 4 -10z m320 0 c0 -5 -4 -10 -10 -10 -5 0 -10 5 -10 10 0 6 5 10
10 10 6 0 10 -4 10 -10z m320 0 c0 -5 -4 -10 -10 -10 -5 0 -10 5 -10 10 0 6 5
10 10 10 6 0 10 -4 10 -10z m-510 -16 c0 -2 -7 -4 -15 -4 -8 0 -15 4 -15 10 0
5 7 7 15 4 8 -4 15 -8 15 -10z m320 0 c0 -2 -7 -4 -15 -4 -8 0 -15 4 -15 10 0
5 7 7 15 4 8 -4 15 -8 15 -10z m70 6 c0 -5 -8 -10 -17 -10 -15 0 -16 2 -3 10
19 12 20 12 20 0z m-433 -22 c-3 -8 -6 -5 -6 6 -1 11 2 17 5 13 3 -3 4 -12 1
-19z m320 0 c-3 -8 -6 -5 -6 6 -1 11 2 17 5 13 3 -3 4 -12 1 -19z m130 0 c-3
-8 -6 -5 -6 6 -1 11 2 17 5 13 3 -3 4 -12 1 -19z m-490 -1 c2 -3 -8 -4 -22 -4
-14 0 -25 3 -25 8 0 7 38 4 47 -4z m218 3 c3 -5 1 -10 -4 -10 -6 0 -11 5 -11
10 0 6 2 10 4 10 3 0 8 -4 11 -10z m35 0 c0 -5 -4 -10 -10 -10 -5 0 -10 5 -10
10 0 6 5 10 10 10 6 0 10 -4 10 -10z m67 -3 c2 -3 -8 -4 -22 -4 -14 0 -25 3
-25 8 0 7 38 4 47 -4z m253 3 c0 -5 -4 -10 -10 -10 -5 0 -10 5 -10 10 0 6 5
10 10 10 6 0 10 -4 10 -10z m40 0 c0 -5 -4 -10 -10 -10 -5 0 -10 5 -10 10 0 6
5 10 10 10 6 0 10 -4 10 -10z m-530 -14 c0 -2 -7 -6 -15 -10 -8 -3 -15 -1 -15
4 0 6 7 10 15 10 8 0 15 -2 15 -4z m37 -2 c-3 -3 -12 -4 -19 -1 -8 3 -5 6 6 6
11 1 17 -2 13 -5z m33 -4 c0 -5 -2 -10 -4 -10 -3 0 -8 5 -11 10 -3 6 -1 10 4
10 6 0 11 -4 11 -10z m250 6 c0 -2 -7 -6 -15 -10 -8 -3 -15 -1 -15 4 0 6 7 10
15 10 8 0 15 -2 15 -4z m37 -2 c-3 -3 -12 -4 -19 -1 -8 3 -5 6 6 6 11 1 17 -2
13 -5z m33 -4 c0 -5 -2 -10 -4 -10 -3 0 -8 5 -11 10 -3 6 -1 10 4 10 6 0 11
-4 11 -10z m-493 -22 c-3 -8 -6 -5 -6 6 -1 11 2 17 5 13 3 -3 4 -12 1 -19z
m243 7 c-7 -8 -18 -15 -24 -15 -6 0 -2 7 8 15 25 19 32 19 16 0z m34 -10 c-19
-29 -20 -29 -30 -13 -4 6 -3 8 4 4 6 -3 13 3 17 14 3 11 11 20 16 20 5 0 2
-11 -7 -25z m43 3 c-3 -8 -6 -5 -6 6 -1 11 2 17 5 13 3 -3 4 -12 1 -19z m293
12 c0 -5 -2 -10 -4 -10 -3 0 -8 5 -11 10 -3 6 -1 10 4 10 6 0 11 -4 11 -10z
m41 -5 c5 4 6 -2 2 -11 -4 -11 -8 -13 -11 -6 -2 7 -8 10 -13 7 -5 -4 -6 2 -2
11 4 11 8 13 11 6 2 -7 8 -10 13 -7z m-547 -10 c-4 -8 -8 -15 -10 -15 -2 0 -4
7 -4 15 0 8 4 15 10 15 5 0 7 -7 4 -15z m46 5 c0 -5 -2 -10 -4 -10 -3 0 -8 5
-11 10 -3 6 -1 10 4 10 6 0 11 -4 11 -10z m274 -5 c-4 -8 -8 -15 -10 -15 -2 0
-4 7 -4 15 0 8 4 15 10 15 5 0 7 -7 4 -15z m46 0 c0 -8 -2 -15 -4 -15 -2 0 -6
7 -10 15 -3 8 -1 15 4 15 6 0 10 -7 10 -15z m76 -2 c-3 -19 -36 -32 -36 -14 0
6 7 8 15 4 9 -3 15 -2 14 3 -2 13 0 24 5 24 2 0 3 -8 2 -17z m-562 -9 c3 -8 2
-12 -4 -9 -6 3 -10 10 -10 16 0 14 7 11 14 -7z m40 5 c-4 -7 2 -9 17 -7 18 2
24 -2 24 -17 0 -11 11 -28 25 -37 31 -22 18 -24 -14 -3 -17 11 -22 22 -18 37
4 15 2 19 -7 14 -16 -10 -44 1 -36 14 3 5 8 10 11 10 3 0 2 -5 -2 -11z m280
-5 c3 -8 2 -12 -4 -9 -6 3 -10 10 -10 16 0 14 7 11 14 -7z m40 5 c-4 -7 2 -9
17 -7 16 2 25 -3 27 -14 2 -10 -1 -18 -7 -18 -6 0 -7 7 -4 17 4 11 3 14 -6 9
-16 -10 -44 1 -36 14 3 5 8 10 11 10 3 0 2 -5 -2 -11z m239 -10 c-8 -8 -13 -7
-18 2 -5 8 -4 10 3 5 7 -4 12 -2 12 5 0 7 3 9 7 6 4 -4 2 -12 -4 -18z m-453 1
c0 -5 -4 -10 -10 -10 -5 0 -10 5 -10 10 0 6 5 10 10 10 6 0 10 -4 10 -10z m90
-6 c0 -2 -7 -4 -15 -4 -8 0 -15 4 -15 10 0 5 7 7 15 4 8 -4 15 -8 15 -10z
m230 6 c0 -5 -4 -10 -10 -10 -5 0 -10 5 -10 10 0 6 5 10 10 10 6 0 10 -4 10
-10z m146 -21 c-14 -21 -71 -36 -59 -16 3 5 13 7 23 4 12 -3 22 4 31 19 7 13
14 22 17 20 2 -3 -3 -15 -12 -27z m-446 6 c0 -8 -4 -15 -10 -15 -5 0 -7 7 -4
15 4 8 8 15 10 15 2 0 4 -7 4 -15z m34 0 c3 -8 1 -15 -4 -15 -6 0 -10 7 -10
15 0 8 2 15 4 15 2 0 6 -7 10 -15z m320 0 c3 -8 1 -15 -4 -15 -6 0 -10 7 -10
15 0 8 2 15 4 15 2 0 6 -7 10 -15z m-524 -15 c6 -11 8 -20 6 -20 -3 0 -10 9
-16 20 -6 11 -8 20 -6 20 3 0 10 -9 16 -20z m125 2 c-3 -3 -11 0 -18 7 -9 10
-8 11 6 5 10 -3 15 -9 12 -12z m195 -4 c11 -22 11 -23 -5 -3 -15 18 -17 18
-26 3 -6 -10 -16 -14 -31 -10 -16 4 -19 2 -13 -8 5 -9 4 -11 -4 -6 -17 11 -2
29 19 23 11 -3 21 1 24 9 8 21 24 17 36 -8z m125 12 c3 -5 1 -10 -4 -10 -6 0
-11 5 -11 10 0 6 2 10 4 10 3 0 8 -4 11 -10z m45 0 c0 -5 -5 -10 -11 -10 -5 0
-7 5 -4 10 3 6 8 10 11 10 2 0 4 -4 4 -10z m200 0 c0 -5 -4 -10 -10 -10 -5 0
-10 5 -10 10 0 6 5 10 10 10 6 0 10 -4 10 -10z m-644 -22 c4 -6 3 -8 -3 -5 -6
4 -13 0 -17 -8 -3 -8 -10 -15 -16 -15 -5 0 -2 9 7 20 20 23 20 23 29 8z m320
0 c4 -6 3 -8 -3 -5 -6 4 -13 0 -17 -8 -3 -8 -10 -15 -16 -15 -5 0 -2 9 7 20
20 23 20 23 29 8z m261 -7 c0 -11 -5 -18 -9 -15 -4 3 -5 11 -1 19 7 21 12 19
10 -4z m-474 2 c-7 -2 -19 -2 -25 0 -7 3 -2 5 12 5 14 0 19 -2 13 -5z m44 1
c-3 -3 -12 -4 -19 -1 -8 3 -5 6 6 6 11 1 17 -2 13 -5z m237 -9 c11 -8 16 -15
10 -15 -5 0 -18 7 -28 15 -11 8 -16 15 -10 15 5 0 18 -7 28 -15z m39 8 c-7 -2
-19 -2 -25 0 -7 3 -2 5 12 5 14 0 19 -2 13 -5z m44 1 c-3 -3 -12 -4 -19 -1 -8
3 -5 6 6 6 11 1 17 -2 13 -5z m-427 -21 c0 -3 -7 -3 -15 1 -18 6 -19 2 -4 -27
9 -20 9 -20 -4 -5 -8 10 -16 15 -19 12 -4 -3 -9 0 -14 7 -4 7 -3 10 3 6 6 -4
13 0 17 8 5 13 36 11 36 -2z m203 -3 c-10 -11 -19 -20 -21 -20 -1 0 2 9 8 20
6 11 15 20 20 20 6 0 2 -9 -7 -20z m117 3 c0 -3 -7 -2 -16 1 -12 5 -14 1 -10
-17 3 -12 3 -16 0 -9 -3 6 -10 10 -14 7 -5 -3 -12 0 -16 6 -4 7 -3 9 3 6 6 -4
13 0 17 8 5 13 36 11 36 -2z m155 -5 c5 4 5 1 1 -6 -4 -7 -12 -9 -18 -6 -8 5
-9 1 -5 -10 4 -10 3 -15 -4 -11 -5 4 -7 15 -4 26 5 15 3 18 -12 13 -15 -5 -16
-4 -3 5 11 8 18 7 26 -4 6 -8 15 -11 19 -7z m45 -3 c0 -2 -6 -7 -12 -11 -7 -4
-10 -4 -6 1 4 4 0 14 -10 22 -15 13 -15 13 6 3 12 -6 22 -13 22 -15z m55 14
c11 -16 1 -19 -13 -3 -7 8 -8 14 -3 14 5 0 13 -5 16 -11z m-427 -23 c-10 -7
-14 -17 -10 -21 4 -5 1 -5 -5 -1 -18 10 -16 24 5 29 27 7 28 7 10 -7z m-128
-6 c0 -5 -2 -10 -4 -10 -3 0 -8 5 -11 10 -3 6 -1 10 4 10 6 0 11 -4 11 -10z
m45 -12 c5 -4 0 -6 -12 -6 -13 1 -19 7 -16 15 3 8 8 10 12 6 3 -4 10 -11 16
-15z m30 -7 c2 -11 0 -21 -4 -21 -5 0 -8 11 -8 25 0 30 6 28 12 -4z m245 19
c0 -5 -2 -10 -4 -10 -3 0 -8 5 -11 10 -3 6 -1 10 4 10 6 0 11 -4 11 -10z m196
-5 c-1 -8 -5 -17 -8 -21 -5 -4 -4 16 1 34 3 9 9 -1 7 -13z m-576 -10 c0 -1
-12 -2 -26 -2 -17 0 -22 2 -13 7 10 7 39 3 39 -5z m240 -10 c0 -2 -5 -7 -12
-11 -7 -4 -8 -3 -4 4 7 11 -6 17 -27 13 -5 -1 -6 3 -2 9 6 9 45 -3 45 -15z
m80 10 c0 -1 -12 -2 -26 -2 -17 0 -22 2 -13 7 10 7 39 3 39 -5z m230 0 c0 -2
-9 -3 -19 -2 -11 0 -18 5 -15 9 4 6 34 0 34 -7z m74 3 c-3 -4 -11 -5 -19 -1
-21 7 -19 12 4 10 11 0 18 -5 15 -9z m-201 -5 c-7 -2 -19 -2 -25 0 -7 3 -2 5
12 5 14 0 19 -2 13 -5z m-363 -13 c0 -5 -4 -10 -10 -10 -5 0 -10 5 -10 10 0 6
5 10 10 10 6 0 10 -4 10 -10z m320 0 c0 -5 -4 -10 -10 -10 -5 0 -10 5 -10 10
0 6 5 10 10 10 6 0 10 -4 10 -10z m80 0 c0 -5 -4 -10 -10 -10 -5 0 -10 5 -10
10 0 6 5 10 10 10 6 0 10 -4 10 -10z m137 3 c-4 -3 1 -12 11 -20 9 -8 11 -12
5 -8 -7 3 -13 0 -14 -7 0 -7 -4 -4 -8 7 -8 20 -5 35 6 35 4 0 3 -3 0 -7z m52
-16 c0 -9 -2 -8 -6 1 -2 6 -10 9 -15 6 -7 -4 -8 -2 -4 5 9 13 26 5 25 -12z
m-663 -24 c-3 -4 -6 -1 -6 6 0 7 -4 9 -10 6 -6 -4 -7 1 -3 11 6 15 7 15 15 -1
6 -9 7 -19 4 -22z m221 15 c-3 -8 -6 -5 -6 6 -1 11 2 17 5 13 3 -3 4 -12 1
-19z m-172 2 c3 -5 2 -10 -4 -10 -5 0 -13 5 -16 10 -3 6 -2 10 4 10 5 0 13 -4
16 -10z m49 -5 c-4 -8 -8 -15 -10 -15 -2 0 -4 7 -4 15 0 8 4 15 10 15 5 0 7
-7 4 -15z m38 -9 c7 4 8 2 4 -5 -10 -15 -26 -4 -25 17 1 15 2 15 6 -1 2 -9 9
-14 15 -11z m37 8 c-11 -14 -10 -16 11 -12 17 2 26 -2 28 -14 2 -10 -1 -18 -7
-18 -6 0 -7 7 -4 17 4 11 3 14 -6 9 -18 -12 -42 1 -35 19 3 8 11 15 16 15 6 0
4 -7 -3 -16z m111 6 c8 -5 11 -10 5 -10 -5 0 -17 5 -25 10 -8 5 -10 10 -5 10
6 0 17 -5 25 -10z m153 -7 c-3 -7 -9 -13 -15 -13 -5 0 -7 4 -4 9 4 5 0 11 -6
14 -7 3 -3 4 8 4 14 -1 20 -6 17 -14z m67 13 c0 -2 -7 -7 -16 -10 -8 -3 -12
-2 -9 4 6 10 25 14 25 6z m75 -6 c-3 -5 -12 -10 -18 -10 -7 0 -6 4 3 10 19 12
23 12 15 0z m-625 -20 c0 -5 -2 -10 -4 -10 -3 0 -8 5 -11 10 -3 6 -1 10 4 10
6 0 11 -4 11 -10z m90 -6 c0 -2 -7 -4 -15 -4 -8 0 -15 4 -15 10 0 5 7 7 15 4
8 -4 15 -8 15 -10z m30 6 c0 -5 -5 -10 -11 -10 -5 0 -7 5 -4 10 3 6 8 10 11
10 2 0 4 -4 4 -10z m195 0 c3 -5 1 -10 -4 -10 -6 0 -11 5 -11 10 0 6 2 10 4
10 3 0 8 -4 11 -10z m45 0 c0 -5 -8 -10 -17 -10 -15 0 -16 2 -3 10 19 12 20
12 20 0z m235 0 c3 -5 1 -10 -4 -10 -6 0 -11 5 -11 10 0 6 2 10 4 10 3 0 8 -4
11 -10z m45 0 c0 -5 -8 -10 -17 -10 -15 0 -16 2 -3 10 19 12 20 12 20 0z
m-620 -15 c0 -8 -4 -15 -10 -15 -5 0 -7 7 -4 15 4 8 8 15 10 15 2 0 4 -7 4
-15z m674 0 c3 -8 1 -15 -4 -15 -6 0 -10 7 -10 15 0 8 2 15 4 15 2 0 6 -7 10
-15z m-639 -5 c3 -5 1 -10 -4 -10 -6 0 -11 5 -11 10 0 6 2 10 4 10 3 0 8 -4
11 -10z m115 -12 c11 -22 11 -23 -5 -3 -14 17 -17 18 -25 5 -5 -8 -10 -10 -10
-4 0 30 26 31 40 2z m27 15 c-4 -3 1 -12 11 -20 15 -13 15 -13 -6 -3 -19 9
-23 30 -5 30 4 0 3 -3 0 -7z m98 -3 c3 -5 1 -10 -4 -10 -6 0 -11 5 -11 10 0 6
2 10 4 10 3 0 8 -4 11 -10z m82 -12 c-3 -8 -6 -5 -6 6 -1 11 2 17 5 13 3 -3 4
-12 1 -19z m83 11 c0 -4 -10 -6 -21 -4 -32 6 -34 13 -4 13 14 0 25 -4 25 -9z
m40 1 c0 -5 -4 -10 -10 -10 -5 0 -10 5 -10 10 0 6 5 10 10 10 6 0 10 -4 10
-10z m30 0 c0 -5 -2 -10 -4 -10 -3 0 -8 5 -11 10 -3 6 -1 10 4 10 6 0 11 -4
11 -10z m37 -12 c-3 -8 -6 -5 -6 6 -1 11 2 17 5 13 3 -3 4 -12 1 -19z m93 12
c0 -5 -5 -10 -11 -10 -5 0 -7 5 -4 10 3 6 8 10 11 10 2 0 4 -4 4 -10z m-540
-20 c0 -5 -7 -7 -15 -4 -10 4 -13 0 -10 -16 2 -12 -2 -23 -10 -27 -8 -3 -12
-10 -9 -17 3 -6 -1 -3 -9 6 -8 10 -18 14 -22 10 -5 -4 -5 -2 -2 5 4 6 16 9 26
6 15 -4 19 0 17 14 -2 10 -1 21 1 26 6 10 33 9 33 -3z m240 0 c0 -5 -7 -7 -15
-4 -8 4 -15 8 -15 10 0 2 7 4 15 4 8 0 15 -4 15 -10z m185 -26 c-8 -6 -11 -15
-7 -19 4 -5 1 -5 -6 -1 -7 4 -9 12 -6 18 5 8 1 9 -10 5 -10 -4 -15 -3 -11 4 4
5 15 7 26 4 15 -5 18 -3 13 12 -5 15 -4 16 5 3 8 -11 7 -18 -4 -26z m67 9 c-2
-17 1 -20 16 -16 11 2 22 1 25 -4 3 -5 -7 -8 -21 -7 -21 1 -27 6 -26 23 0 14
-4 20 -13 17 -7 -3 -13 -1 -13 5 0 6 8 9 18 7 11 -2 16 -11 14 -25z m-614 -8
c-3 -3 -9 2 -12 12 -6 14 -5 15 5 6 7 -7 10 -15 7 -18z m39 19 c-3 -3 -12 -4
-19 -1 -8 3 -5 6 6 6 11 1 17 -2 13 -5z m247 -9 c11 -8 16 -15 10 -15 -5 0
-18 7 -28 15 -11 8 -16 15 -10 15 5 0 18 -7 28 -15z m196 5 c0 -5 -4 -10 -10
-10 -5 0 -10 5 -10 10 0 6 5 10 10 10 6 0 10 -4 10 -10z m207 4 c-3 -3 -12 -4
-19 -1 -8 3 -5 6 6 6 11 1 17 -2 13 -5z m-544 -24 c-20 -23 -20 -23 -29 -8 -4
6 -3 8 3 5 6 -4 13 0 17 8 3 8 10 15 16 15 5 0 2 -9 -7 -20z m52 10 c-3 -5
-12 -10 -18 -10 -7 0 -6 4 3 10 19 12 23 12 15 0z m65 -7 c0 -3 -7 -2 -16 1
-12 5 -14 1 -10 -17 3 -12 3 -16 0 -9 -3 6 -10 10 -14 7 -5 -3 -12 0 -16 6 -4
7 -3 9 3 6 6 -4 13 0 17 8 5 13 36 11 36 -2z m78 0 c-2 -9 -11 -17 -21 -19 -9
-1 -15 2 -11 7 3 5 10 6 16 3 7 -5 9 -1 5 9 -3 10 -2 17 4 17 6 0 9 -7 7 -17z
m98 5 c4 -7 4 -10 -1 -6 -4 4 -14 0 -21 -10 -12 -15 -12 -15 -7 6 6 24 18 29
29 10z m-61 -34 c-1 -14 -8 -30 -16 -34 -11 -8 -10 -12 6 -25 20 -16 19 -16
-2 -5 -26 12 -30 28 -8 36 8 4 12 10 9 16 -5 8 1 38 9 38 1 0 2 -12 2 -26z
m218 3 c4 3 7 4 7 0 0 -18 -21 -14 -30 5 -10 21 -10 21 3 6 8 -10 17 -15 20
-11z m103 11 c4 -7 4 -10 -1 -6 -4 4 -14 0 -22 -10 -13 -15 -13 -15 -3 6 12
25 16 27 26 10z m-663 -13 c4 -8 3 -16 -1 -19 -4 -3 -9 4 -9 15 -2 23 3 25 10
4z m247 5 c0 -5 -2 -10 -4 -10 -3 0 -8 5 -11 10 -3 6 -1 10 4 10 6 0 11 -4 11
-10z m159 3 c-3 -21 2 -33 13 -27 7 5 8 3 3 -6 -6 -10 -11 -9 -21 5 -7 10 -11
22 -8 26 6 11 14 12 13 2z m74 -18 c-7 -21 -12 -19 -10 4 0 11 5 18 9 15 4 -3
5 -11 1 -19z m-398 6 c3 -6 -5 -15 -17 -21 -21 -10 -21 -10 -6 3 10 8 15 17
11 20 -3 4 -4 7 0 7 3 0 8 -4 12 -9z m28 -11 c-10 -11 -19 -20 -21 -20 -1 0 2
9 8 20 6 11 15 20 20 20 6 0 2 -9 -7 -20z m77 5 c0 -1 -12 -2 -26 -2 -17 0
-22 2 -13 7 10 7 39 3 39 -5z m193 -8 c4 3 7 4 7 0 0 -18 -21 -14 -30 5 -10
21 -10 21 3 6 8 -10 17 -15 20 -11z m70 16 c-7 -2 -19 -2 -25 0 -7 3 -2 5 12
5 14 0 19 -2 13 -5z m67 -13 c-12 -23 -16 -24 -26 -8 -4 6 -3 8 3 5 6 -4 13 0
17 8 3 8 8 15 11 15 3 0 1 -9 -5 -20z m-540 6 c0 -2 -7 -7 -16 -10 -8 -3 -12
-2 -9 4 6 10 25 14 25 6z m324 -5 c3 -5 -5 -16 -19 -25 -14 -9 -25 -12 -25 -7
0 5 9 13 20 16 11 4 18 11 15 16 -4 5 -4 9 -1 9 3 0 7 -4 10 -9z m283 2 c-4
-3 1 -12 11 -20 15 -13 15 -13 -6 -3 -19 9 -23 30 -5 30 4 0 3 -3 0 -7z m85 0
c-6 -2 -9 -10 -6 -15 4 -7 2 -8 -5 -4 -13 9 -5 26 12 25 9 0 8 -2 -1 -6z
m-647 -13 c-3 -5 -2 -10 3 -10 6 0 12 -7 16 -15 7 -19 1 -19 -18 1 -14 14 -14
34 0 34 3 0 2 -4 -1 -10z m225 0 c0 -5 -4 -10 -10 -10 -5 0 -10 5 -10 10 0 6
5 10 10 10 6 0 10 -4 10 -10z m320 -16 c0 -2 -9 0 -20 6 -11 6 -20 13 -20 16
0 2 9 0 20 -6 11 -6 20 -13 20 -16z m78 -6 c3 2 7 -1 9 -7 1 -7 0 -8 -4 -1 -2
5 -9 8 -13 5 -5 -3 -14 5 -20 17 -11 22 -11 22 5 3 9 -11 19 -19 23 -17z
m-481 -10 c-3 -7 -5 -2 -5 12 0 14 2 19 5 13 2 -7 2 -19 0 -25z m-90 0 c-3 -8
-6 -5 -6 6 -1 11 2 17 5 13 3 -3 4 -12 1 -19z m53 15 c0 -5 -5 -15 -10 -23 -7
-12 -9 -10 -7 8 1 19 17 33 17 15z m90 -3 c0 -5 -4 -10 -10 -10 -5 0 -10 5
-10 10 0 6 5 10 10 10 6 0 10 -4 10 -10z m230 0 c0 -5 -4 -10 -10 -10 -5 0
-10 5 -10 10 0 6 5 10 10 10 6 0 10 -4 10 -10z m28 -14 c-10 -7 -15 -16 -12
-19 4 -3 4 -13 0 -22 -5 -13 -9 -13 -25 -3 -11 7 -18 14 -16 17 3 2 12 -2 21
-10 14 -11 16 -10 13 7 -4 19 21 57 31 47 3 -2 -3 -10 -12 -17z m-468 -6 c0
-5 -4 -10 -10 -10 -5 0 -10 5 -10 10 0 6 5 10 10 10 6 0 10 -4 10 -10z m135 0
c-6 -9 8 -14 28 -11 5 1 6 -3 2 -9 -4 -7 -12 -7 -26 0 -17 9 -19 30 -3 30 3 0
2 -4 -1 -10z m103 -15 c0 -30 -7 -28 -13 4 -2 11 0 21 4 21 5 0 9 -11 9 -25z
m57 16 c3 -5 0 -13 -6 -17 -7 -4 -9 -3 -5 4 3 5 0 13 -6 15 -9 4 -10 6 -1 6 6
1 14 -3 18 -8z m81 -3 c4 -7 4 -10 -1 -6 -4 4 -14 0 -22 -10 -13 -15 -13 -15
-3 6 12 25 16 27 26 10z m147 5 c-7 -2 -19 -2 -25 0 -7 3 -2 5 12 5 14 0 19
-2 13 -5z m44 1 c-3 -3 -12 -4 -19 -1 -8 3 -5 6 6 6 11 1 17 -2 13 -5z m48
-20 c0 -10 6 -24 14 -30 11 -9 12 -12 1 -19 -8 -5 -11 -4 -7 2 4 6 1 13 -7 16
-9 4 -12 14 -9 28 4 15 2 20 -5 15 -6 -3 -13 -2 -16 3 -4 5 2 8 11 7 10 -2 18
-11 18 -22z m-217 -10 c0 -17 -3 -22 -8 -13 -5 6 -6 18 -3 26 8 19 11 16 11
-13z m-338 6 c0 -5 -4 -10 -10 -10 -5 0 -10 5 -10 10 0 6 5 10 10 10 6 0 10
-4 10 -10z m140 -9 c0 -5 -10 -11 -22 -14 -21 -5 -21 -5 -6 7 10 7 14 17 10
21 -4 5 -1 5 6 1 6 -4 12 -11 12 -15z m130 -3 c10 -21 10 -21 -3 -6 -8 10 -18
14 -22 10 -5 -4 -5 -1 -1 6 10 17 14 15 26 -10z m170 18 c0 -2 -7 -7 -16 -10
-8 -3 -12 -2 -9 4 6 10 25 14 25 6z m40 -11 c0 -8 -2 -15 -4 -15 -2 0 -6 7
-10 15 -3 8 -1 15 4 15 6 0 10 -7 10 -15z m34 0 c-4 -8 -8 -15 -10 -15 -2 0
-4 7 -4 15 0 8 4 15 10 15 5 0 7 -7 4 -15z m-623 -18 c-10 -9 -11 -8 -5 6 3
10 9 15 12 12 3 -3 0 -11 -7 -18z m49 13 c0 -5 -5 -10 -11 -10 -5 0 -7 5 -4
10 3 6 8 10 11 10 2 0 4 -4 4 -10z m113 -5 c-3 -9 -8 -14 -10 -11 -3 3 -2 9 2
15 9 16 15 13 8 -4z m-79 -25 c-6 -6 -15 -5 -24 1 -12 9 -12 10 4 5 14 -5 17
-3 12 11 -6 15 -5 16 5 6 8 -8 10 -16 3 -23z m103 23 c-4 -3 1 -12 11 -20 15
-13 15 -13 -6 -3 -19 9 -23 30 -5 30 4 0 3 -3 0 -7z m157 -22 c0 -14 4 -20 13
-17 7 3 13 1 13 -5 0 -6 -8 -9 -17 -7 -12 2 -17 11 -15 27 2 14 0 21 -6 17 -6
-4 -13 -2 -16 3 -4 5 2 8 11 7 11 -2 18 -12 17 -25z m81 9 c-3 -4 1 -11 7 -14
7 -3 3 -3 -9 0 -19 4 -22 2 -17 -13 5 -15 4 -16 -5 -3 -8 11 -7 18 4 26 8 6
11 15 7 19 -4 5 -1 5 6 1 7 -4 10 -11 7 -16z m145 10 c0 -5 -4 -10 -10 -10 -5
0 -10 5 -10 10 0 6 5 10 10 10 6 0 10 -4 10 -10z m74 -6 c3 -8 2 -12 -4 -9 -6
3 -10 10 -10 16 0 14 7 11 14 -7z m-104 -37 c-8 -9 -9 -7 -4 7 5 13 4 17 -4
12 -6 -3 -14 -1 -18 5 -4 8 -3 9 4 5 7 -4 12 -1 12 6 0 8 5 5 11 -5 8 -14 8
-22 -1 -30z m-496 18 c18 -14 31 -69 13 -58 -4 3 -7 12 -5 21 2 10 -7 25 -22
34 -14 10 -20 18 -15 18 6 -1 19 -7 29 -15z m84 1 c-7 -8 -15 -12 -17 -11 -5
6 10 25 20 25 5 0 4 -6 -3 -14z m142 9 c0 -7 -30 -13 -34 -7 -3 4 4 9 15 9 10
1 19 0 19 -2z m313 -12 c-5 -12 -3 -14 7 -8 9 6 11 4 5 -4 -5 -9 -11 -9 -17
-3 -6 6 -7 15 -4 21 11 17 16 13 9 -6z m42 -1 c-3 -3 -11 0 -18 7 -9 10 -8 11
6 5 10 -3 15 -9 12 -12z m-134 -12 c6 0 7 5 3 12 -5 7 -3 8 5 3 9 -5 9 -11 3
-17 -12 -12 -32 -2 -31 15 0 9 2 9 6 0 2 -7 9 -13 14 -13z m-466 1 c3 -5 0
-13 -6 -17 -7 -4 -9 -3 -5 4 3 6 -2 13 -11 15 -16 4 -16 5 -1 6 9 0 19 -3 23
-8z m198 -4 c-3 -5 -13 -7 -23 -4 -11 3 -21 -1 -24 -9 -3 -8 -10 -14 -16 -14
-5 0 -3 8 5 18 15 17 68 25 58 9z m64 7 c-3 -3 -12 -4 -19 -1 -8 3 -5 6 6 6
11 1 17 -2 13 -5z m378 -4 c4 -6 -1 -7 -11 -3 -11 4 -15 3 -10 -5 3 -6 1 -14
-5 -18 -8 -4 -9 -3 -5 4 4 7 1 12 -6 12 -9 0 -9 3 2 10 19 12 27 12 35 0z m41
-2 c4 -7 4 -10 -1 -6 -4 4 -14 0 -22 -10 -13 -15 -13 -15 -3 6 12 25 16 27 26
10z m-296 -42 c0 -6 -7 -1 -15 10 -8 10 -15 23 -15 28 0 6 7 1 15 -10 8 -10
15 -23 15 -28z m-270 29 c0 -7 -30 -13 -34 -7 -3 4 4 9 15 9 10 1 19 0 19 -2z
m130 -10 c0 -8 -2 -15 -4 -15 -2 0 -6 7 -10 15 -3 8 -1 15 4 15 6 0 10 -7 10
-15z m34 0 c-4 -8 -8 -15 -10 -15 -2 0 -4 7 -4 15 0 8 4 15 10 15 5 0 7 -7 4
-15z m131 5 c3 -5 1 -10 -4 -10 -6 0 -11 5 -11 10 0 6 2 10 4 10 3 0 8 -4 11
-10z m35 0 c0 -5 -4 -10 -10 -10 -5 0 -10 5 -10 10 0 6 5 10 10 10 6 0 10 -4
10 -10z m106 -5 c4 -8 10 -12 16 -9 5 3 15 3 23 0 18 -6 10 -32 -13 -41 -13
-5 -12 -1 4 16 19 22 19 22 -4 16 -14 -3 -25 0 -31 11 -9 15 -11 15 -26 -3
-16 -20 -16 -19 -5 3 12 25 28 29 36 7z m136 -2 c-6 -2 -9 -10 -6 -15 4 -7 2
-8 -5 -4 -13 9 -5 26 12 25 9 0 8 -2 -1 -6z m-682 -29 c0 -8 -4 -14 -10 -14
-5 0 -7 7 -4 15 5 11 1 14 -12 9 -15 -5 -16 -4 -4 4 17 13 30 6 30 -14z m76
14 c4 -7 3 -8 -4 -4 -7 4 -12 2 -12 -5 0 -7 -3 -10 -6 -6 -6 5 3 27 11 27 2 0
7 -5 11 -12z m31 -19 c-7 -12 -13 -15 -16 -7 -2 7 1 14 8 16 6 2 8 9 5 14 -4
7 -2 8 4 4 9 -5 8 -12 -1 -27z m59 19 c4 -7 3 -8 -4 -4 -7 4 -12 1 -12 -7 0
-8 -7 -17 -15 -21 -13 -5 -13 -2 1 19 19 29 20 29 30 13z m54 2 c0 -5 -8 -6
-17 -3 -16 6 -16 5 -4 -10 7 -9 9 -17 3 -17 -12 0 -23 26 -15 34 10 10 33 7
33 -4z m90 6 c0 -2 -7 -6 -15 -10 -8 -3 -15 -1 -15 4 0 6 7 10 15 10 8 0 15
-2 15 -4z m30 -6 c0 -5 -2 -10 -4 -10 -3 0 -8 5 -11 10 -3 6 -1 10 4 10 6 0
11 -4 11 -10z m149 -13 c0 -9 -2 -8 -6 1 -2 6 -10 9 -15 6 -7 -4 -8 -2 -4 5 9
13 26 5 25 -12z m149 -8 c-3 -8 -7 -3 -11 10 -4 17 -3 21 5 13 5 -5 8 -16 6
-23z m-158 -16 c0 -1 -5 -5 -12 -9 -7 -4 -8 -3 -4 4 6 11 -5 16 -26 13 -4 0
-5 6 -2 13 5 12 9 12 25 -2 10 -9 19 -17 19 -19z m-233 5 c-3 -8 -6 -5 -6 6
-1 11 2 17 5 13 3 -3 4 -12 1 -19z m63 12 c-8 -5 -19 -10 -25 -10 -5 0 -3 5 5
10 8 5 20 10 25 10 6 0 3 -5 -5 -10z m85 0 c-3 -5 -12 -10 -18 -10 -7 0 -6 4
3 10 19 12 23 12 15 0z m145 -5 c0 -8 -2 -15 -4 -15 -2 0 -6 7 -10 15 -3 8 -1
15 4 15 6 0 10 -7 10 -15z m117 -7 c-3 -8 -6 -5 -6 6 -1 11 2 17 5 13 3 -3 4
-12 1 -19z m-637 -8 c0 -5 -5 -10 -11 -10 -5 0 -7 5 -4 10 3 6 8 10 11 10 2 0
4 -4 4 -10z m160 0 c0 -5 -4 -10 -10 -10 -5 0 -10 5 -10 10 0 6 5 10 10 10 6
0 10 -4 10 -10z m240 0 c0 -5 -4 -10 -10 -10 -5 0 -10 5 -10 10 0 6 5 10 10
10 6 0 10 -4 10 -10z m78 -16 c0 -17 -3 -22 -8 -13 -5 6 -6 18 -3 26 8 19 11
16 11 -13z m122 16 c0 -5 -4 -10 -10 -10 -5 0 -10 5 -10 10 0 6 5 10 10 10 6
0 10 -4 10 -10z m-633 -6 c-3 -3 -12 -4 -19 -1 -8 3 -5 6 6 6 11 1 17 -2 13
-5z m50 -26 c-3 -8 -6 -5 -6 6 -1 11 2 17 5 13 3 -3 4 -12 1 -19z m83 12 c0
-5 -4 -10 -10 -10 -5 0 -10 5 -10 10 0 6 5 10 10 10 6 0 10 -4 10 -10z m93 -7
c-4 -10 -2 -14 5 -9 6 3 14 1 18 -6 4 -7 4 -10 -1 -6 -4 4 -13 1 -19 -7 -8
-11 -15 -12 -26 -4 -12 9 -12 10 4 5 14 -5 17 -2 12 10 -3 9 -4 20 0 25 9 15
14 10 7 -8z m57 12 c0 -7 -30 -13 -34 -7 -3 4 4 9 15 9 10 1 19 0 19 -2z m74
-7 c-3 -4 -11 -5 -19 -1 -21 7 -19 12 4 10 11 0 18 -5 15 -9z m36 -7 c0 -5
-10 -11 -22 -14 -21 -5 -21 -5 -6 7 10 7 14 17 10 21 -4 5 -1 5 6 1 6 -4 12
-11 12 -15z m78 1 c2 -7 -1 -12 -8 -12 -6 0 -9 4 -6 9 4 5 1 12 -4 14 -6 3 -5
4 2 3 6 -1 14 -8 16 -14z m102 8 c0 -5 -4 -10 -10 -10 -5 0 -10 5 -10 10 0 6
5 10 10 10 6 0 10 -4 10 -10z m30 0 c0 -5 -5 -10 -11 -10 -5 0 -7 5 -4 10 3 6
8 10 11 10 2 0 4 -4 4 -10z m90 0 c0 -5 -4 -10 -10 -10 -5 0 -10 5 -10 10 0 6
5 10 10 10 6 0 10 -4 10 -10z m-660 -20 c0 -5 -7 -7 -15 -4 -8 4 -15 8 -15 10
0 2 7 4 15 4 8 0 15 -4 15 -10z m36 -6 c-4 -12 -1 -14 13 -9 11 3 22 1 26 -4
4 -7 -1 -8 -11 -4 -11 4 -15 3 -10 -5 3 -6 1 -14 -5 -18 -7 -4 -9 -3 -6 3 4 6
0 13 -8 17 -13 5 -11 36 2 36 3 0 2 -7 -1 -16z m77 1 c-3 -9 -8 -14 -10 -11
-3 3 -2 9 2 15 9 16 15 13 8 -4z m142 6 c3 -6 -5 -15 -17 -21 -21 -10 -21 -10
-6 3 10 8 15 17 11 20 -3 4 -4 7 0 7 3 0 8 -4 12 -9z m42 2 c-4 -3 1 -12 11
-20 15 -13 15 -13 -6 -3 -19 9 -23 30 -5 30 4 0 3 -3 0 -7z m303 -3 c0 -5 -4
-10 -10 -10 -5 0 -10 5 -10 10 0 6 5 10 10 10 6 0 10 -4 10 -10z m-83 -20 c-1
-12 -5 -16 -10 -11 -5 5 -6 14 -3 20 11 16 15 13 13 -9z m46 1 c-4 -3 -11 -10
-15 -15 -4 -4 -6 1 -5 12 1 12 6 18 15 15 7 -3 10 -9 5 -12z m-583 -5 c0 -20
-17 -29 -26 -15 -5 8 -3 9 6 4 10 -6 12 -4 7 8 -3 10 -2 17 3 17 6 0 10 -6 10
-14z m400 9 c0 -7 -30 -13 -34 -7 -3 4 4 9 15 9 10 1 19 0 19 -2z m255 -6 c11
-16 1 -19 -13 -3 -7 8 -8 14 -3 14 5 0 13 -5 16 -11z m-38 -14 c0 -8 -4 -15
-9 -15 -10 0 -11 14 -1 23 9 10 10 9 10 -8z m-587 -15 c-12 -23 -16 -24 -26
-8 -4 6 -3 8 3 5 6 -4 13 0 17 8 3 8 8 15 11 15 3 0 1 -9 -5 -20z m157 14 c-3
-3 -12 -4 -19 -1 -8 3 -5 6 6 6 11 1 17 -2 13 -5z m73 -19 c0 -2 -6 -7 -12
-11 -7 -4 -10 -4 -6 1 4 4 0 14 -10 22 -15 13 -15 13 6 3 12 -6 22 -13 22 -15z
m40 4 c4 8 20 15 33 15 14 1 23 -2 20 -7 -3 -5 -13 -7 -23 -4 -11 3 -21 -1
-24 -9 -8 -21 -24 -17 -36 9 -11 21 -11 22 5 2 13 -16 17 -17 25 -6z m117 15
c-3 -3 -12 -4 -19 -1 -8 3 -5 6 6 6 11 1 17 -2 13 -5z m60 -9 c5 -4 3 -5 -4
-2 -6 4 -13 3 -15 -2 -1 -5 -9 -3 -16 5 -11 12 -9 13 7 11 11 -2 24 -7 28 -12z
m39 3 c4 -7 3 -8 -4 -4 -11 7 -17 -6 -13 -27 1 -5 -3 -6 -9 -2 -7 4 -7 12 0
26 12 22 16 23 26 7z m-419 -20 c2 -17 0 -19 -7 -8 -5 8 -6 18 -4 22 8 12 10
10 11 -14z m-24 -11 c4 3 7 4 7 0 0 -18 -21 -14 -30 5 -10 21 -10 21 3 6 8
-10 17 -15 20 -11z m87 13 c0 -5 -2 -10 -4 -10 -3 0 -8 5 -11 10 -3 6 -1 10 4
10 6 0 11 -4 11 -10z m34 -5 c-4 -8 -8 -15 -10 -15 -2 0 -4 7 -4 15 0 8 4 15
10 15 5 0 7 -7 4 -15z m206 0 c0 -8 -2 -15 -4 -15 -2 0 -6 7 -10 15 -3 8 -1
15 4 15 6 0 10 -7 10 -15z m40 11 c0 -3 -4 -8 -10 -11 -5 -3 -10 -1 -10 4 0 6
5 11 10 11 6 0 10 -2 10 -4z m147 -3 c-9 -8 -47 -11 -47 -4 0 5 11 9 25 9 14
0 24 -2 22 -5z m77 -5 c-3 -4 -11 -5 -19 -1 -21 7 -19 12 4 10 11 0 18 -5 15
-9z m-669 -19 c-4 -5 -14 -8 -23 -8 -15 1 -15 2 1 6 9 2 14 9 11 15 -4 7 -2 8
5 4 6 -4 9 -12 6 -17z m618 6 c-3 -9 -8 -14 -10 -11 -3 3 -2 9 2 15 9 16 15
13 8 -4z m-587 -10 c-20 -15 -20 -15 0 -31 18 -14 18 -15 -3 -4 -28 13 -29 25
-5 39 25 15 30 13 8 -4z m105 -12 c-12 -20 -14 -14 -5 12 4 9 9 14 11 11 3 -2
0 -13 -6 -23z m105 4 c1 -9 -2 -15 -7 -11 -5 3 -6 10 -3 16 5 7 1 9 -9 5 -10
-3 -17 -2 -17 4 0 18 33 5 36 -14z m43 0 c0 -9 -2 -8 -6 1 -2 6 -10 9 -15 6
-7 -4 -8 -2 -4 5 9 13 26 5 25 -12z m47 11 c4 -6 3 -8 -4 -4 -6 3 -13 -3 -17
-14 -3 -11 -11 -20 -16 -20 -5 0 -2 11 7 25 19 29 20 29 30 13z m54 2 c0 -5
-7 -6 -17 -3 -10 4 -14 2 -9 -5 3 -6 2 -13 -3 -16 -7 -5 -8 11 -2 32 3 7 31 0
31 -8z m74 -6 c3 -8 2 -12 -4 -9 -6 3 -10 10 -10 16 0 14 7 11 14 -7z m23 -16
c-5 -16 -2 -19 14 -15 11 3 23 -1 28 -11 9 -15 11 -15 26 3 16 20 16 19 5 -2
-12 -26 -25 -29 -37 -10 -4 6 -17 12 -27 12 -14 0 -20 7 -20 27 -1 14 2 24 7
21 5 -3 6 -14 4 -25z m158 23 c-3 -5 4 -13 16 -16 11 -4 18 -9 16 -12 -9 -8
-48 18 -42 28 4 5 8 9 11 9 3 0 3 -4 -1 -9z m54 -14 c0 -9 -2 -8 -6 1 -2 6
-10 9 -15 6 -7 -4 -8 -2 -4 5 9 13 26 5 25 -12z m-529 -2 c0 -8 -4 -15 -10
-15 -5 0 -7 7 -4 15 4 8 8 15 10 15 2 0 4 -7 4 -15z m274 0 c3 -8 1 -15 -4
-15 -6 0 -10 7 -10 15 0 8 2 15 4 15 2 0 6 -7 10 -15z m106 0 c0 -8 -4 -15
-10 -15 -5 0 -7 7 -4 15 4 8 8 15 10 15 2 0 4 -7 4 -15z m43 -12 c-5 -12 -3
-14 7 -8 9 5 11 4 6 -4 -4 -6 -12 -9 -17 -6 -12 8 -12 35 1 35 5 0 6 -7 3 -17z
m49 -7 c7 4 8 2 4 -5 -9 -13 -26 -5 -25 12 0 9 2 8 6 -1 2 -6 10 -9 15 -6z
m-637 -5 c3 -5 0 -13 -6 -17 -8 -5 -9 -3 -4 6 6 10 4 12 -9 7 -10 -4 -15 -3
-11 3 8 13 22 13 30 1z m81 -3 c4 -7 4 -10 -1 -6 -4 4 -14 0 -22 -10 -13 -15
-13 -15 -3 6 12 25 16 27 26 10z m104 2 c0 -5 -5 -10 -11 -10 -5 0 -7 5 -4 10
3 6 8 10 11 10 2 0 4 -4 4 -10z m210 -34 c0 -6 -7 -1 -15 10 -8 10 -15 23 -15
28 0 6 7 1 15 -10 8 -10 15 -23 15 -28z m25 34 c3 -5 1 -10 -4 -10 -6 0 -11 5
-11 10 0 6 2 10 4 10 3 0 8 -4 11 -10z m-318 -19 c0 -11 -5 -18 -9 -15 -4 3
-5 11 -1 19 7 21 12 19 10 -4z m353 5 c-1 -5 4 -13 12 -18 11 -8 11 -9 0 -6
-8 2 -13 7 -12 12 1 5 -4 13 -12 18 -11 8 -11 9 0 6 8 -2 13 -7 12 -12z m-420
-18 c10 -21 10 -21 -3 -6 -8 10 -18 14 -22 10 -5 -4 -5 -1 -1 6 10 17 14 15
26 -10z m167 0 c-3 -8 -6 -5 -6 6 -1 11 2 17 5 13 3 -3 4 -12 1 -19z m83 12
c0 -5 -4 -10 -10 -10 -5 0 -10 5 -10 10 0 6 5 10 10 10 6 0 10 -4 10 -10z m40
0 c0 -5 -4 -10 -10 -10 -5 0 -10 5 -10 10 0 6 5 10 10 10 6 0 10 -4 10 -10z
m30 0 c0 -5 -2 -10 -4 -10 -3 0 -8 5 -11 10 -3 6 -1 10 4 10 6 0 11 -4 11 -10z
m320 -5 c0 -1 -12 -2 -26 -2 -17 0 -22 2 -13 7 10 7 39 3 39 -5z m-533 -1 c-3
-3 -12 -4 -19 -1 -8 3 -5 6 6 6 11 1 17 -2 13 -5z m-139 -27 c2 -10 -1 -17 -7
-17 -6 0 -7 7 -4 17 4 10 2 14 -5 9 -6 -3 -13 -2 -16 3 -4 5 2 8 11 7 10 -2
19 -10 21 -19z m76 1 c-5 -8 -1 -9 10 -5 10 4 15 3 11 -4 -4 -5 -15 -7 -26 -4
-15 5 -18 3 -13 -12 5 -15 4 -16 -5 -3 -8 11 -7 18 4 26 8 6 11 15 7 19 -4 5
-1 5 6 1 7 -4 9 -12 6 -18z m106 12 c0 -5 -7 -7 -15 -4 -8 4 -15 8 -15 10 0 2
7 4 15 4 8 0 15 -4 15 -10z m36 -6 c-4 -12 -1 -14 13 -9 11 3 22 1 26 -4 4 -7
-1 -8 -11 -4 -11 4 -15 3 -10 -5 3 -6 1 -14 -5 -18 -7 -4 -9 -3 -6 3 4 6 0 13
-8 17 -13 5 -11 36 2 36 3 0 2 -7 -1 -16z m149 -20 c-8 -6 -11 -15 -7 -19 4
-5 1 -5 -6 -1 -7 4 -9 12 -6 18 5 8 1 9 -10 5 -10 -4 -15 -3 -11 4 4 5 15 7
26 4 15 -5 18 -3 13 12 -5 15 -4 16 5 3 8 -11 7 -18 -4 -26z m67 8 c-2 -16 1
-20 12 -16 9 3 16 2 16 -4 0 -6 -8 -9 -17 -7 -11 1 -18 11 -17 24 0 14 -4 20
-13 17 -7 -3 -13 -1 -13 5 0 6 8 9 18 7 11 -2 16 -11 14 -26z m79 -4 c-10 -11
-11 -9 -5 6 6 15 4 17 -6 11 -9 -6 -11 -4 -5 4 5 9 10 10 18 2 8 -8 7 -14 -2
-23z m42 15 c-4 -10 -2 -14 5 -9 6 3 14 1 18 -5 4 -8 3 -9 -4 -5 -7 4 -12 1
-12 -6 0 -8 -5 -6 -11 5 -5 9 -7 22 -4 27 10 16 15 12 8 -7z m49 10 c-6 -2 -9
-10 -6 -15 4 -7 2 -8 -5 -4 -13 9 -5 26 12 25 9 0 8 -2 -1 -6z m-302 -13 c0
-5 -4 -10 -10 -10 -5 0 -10 5 -10 10 0 6 5 10 10 10 6 0 10 -4 10 -10z m-140
-13 c0 -8 -3 -16 -6 -20 -8 -8 -34 3 -34 15 0 6 8 4 17 -3 15 -12 16 -12 10 4
-3 9 -2 17 3 17 6 0 10 -6 10 -13z m325 3 c3 -6 -1 -7 -9 -4 -18 7 -21 14 -7
14 6 0 13 -4 16 -10z m205 0 c0 -5 -5 -10 -11 -10 -5 0 -7 5 -4 10 3 6 8 10
11 10 2 0 4 -4 4 -10z m-670 -20 c0 -5 -8 -10 -17 -10 -15 0 -16 2 -3 10 19
12 20 12 20 0z m175 -16 c-1 -15 -10 -30 -21 -36 -18 -9 -18 -8 -2 5 10 8 15
17 12 20 -6 6 2 37 9 37 1 0 2 -12 2 -26z m218 3 c4 3 7 4 7 0 0 -18 -21 -14
-30 5 -10 21 -10 21 3 6 8 -10 17 -15 20 -11z m127 13 c0 -5 -4 -10 -10 -10
-5 0 -10 5 -10 10 0 6 5 10 10 10 6 0 10 -4 10 -10z m66 -2 c5 -7 3 -8 -6 -3
-10 6 -12 3 -8 -12 4 -13 -2 -27 -13 -37 -11 -9 -19 -11 -19 -6 0 6 7 13 15
16 8 4 12 10 9 16 -6 9 2 38 10 38 3 0 8 -5 12 -12z m54 2 c0 -5 -4 -10 -10
-10 -5 0 -10 5 -10 10 0 6 5 10 10 10 6 0 10 -4 10 -10z m-623 -22 c-3 -8 -6
-5 -6 6 -1 11 2 17 5 13 3 -3 4 -12 1 -19z m220 0 c2 -17 0 -19 -7 -8 -5 8 -6
18 -4 22 8 12 10 10 11 -14z m76 -3 c-7 -21 -12 -19 -10 4 0 11 5 18 9 15 4
-3 5 -11 1 -19z m147 10 c0 -8 -4 -15 -10 -15 -5 0 -7 7 -4 15 4 8 8 15 10 15
2 0 4 -7 4 -15z m34 0 c3 -8 1 -15 -4 -15 -6 0 -10 7 -10 15 0 8 2 15 4 15 2
0 6 -7 10 -15z m-394 -5 c0 -5 -4 -10 -10 -10 -5 0 -10 5 -10 10 0 6 5 10 10
10 6 0 10 -4 10 -10z m113 -13 c4 3 7 4 7 0 0 -18 -21 -14 -30 5 -10 21 -10
21 3 6 8 -10 17 -15 20 -11z m70 16 c-7 -2 -19 -2 -25 0 -7 3 -2 5 12 5 14 0
19 -2 13 -5z m67 -13 c-12 -23 -16 -24 -26 -8 -4 6 -3 8 3 5 6 -4 13 0 17 8 3
8 8 15 11 15 3 0 1 -9 -5 -20z m190 10 c0 -5 -5 -10 -11 -10 -5 0 -7 5 -4 10
3 6 8 10 11 10 2 0 4 -4 4 -10z m-412 -24 c-8 -6 -15 -15 -16 -19 -1 -18 -8
-15 -9 3 -1 12 5 20 13 20 9 0 12 5 8 12 -5 7 -3 8 6 3 10 -6 10 -10 -2 -19z
m287 14 c-3 -5 2 -10 11 -10 10 0 15 -3 11 -6 -10 -10 -39 5 -32 16 3 5 8 10
11 10 3 0 2 -4 -1 -10z m225 0 c0 -5 -5 -10 -11 -10 -5 0 -7 5 -4 10 3 6 8 10
11 10 2 0 4 -4 4 -10z m-670 -4 c0 -2 -7 -7 -16 -10 -8 -3 -12 -2 -9 4 6 10
25 14 25 6z m30 -6 c0 -5 -2 -10 -4 -10 -3 0 -8 5 -11 10 -3 6 -1 10 4 10 6 0
11 -4 11 -10z m410 -20 c8 -5 11 -10 5 -10 -5 0 -21 10 -35 21 -24 20 -5 13
30 -11z m-393 -12 c-3 -7 -5 -2 -5 12 0 14 2 19 5 13 2 -7 2 -19 0 -25z m60 0
c-3 -7 -5 -2 -5 12 0 14 2 19 5 13 2 -7 2 -19 0 -25z m400 26 c-3 -3 -12 -4
-19 -1 -8 3 -5 6 6 6 11 1 17 -2 13 -5z m46 -1 c-7 -2 -19 -2 -25 0 -7 3 -2 5
12 5 14 0 19 -2 13 -5z m-543 -13 c0 -5 -4 -10 -10 -10 -5 0 -10 5 -10 10 0 6
5 10 10 10 6 0 10 -4 10 -10z m265 -19 c-6 -5 -25 10 -25 20 0 5 6 4 14 -3 8
-7 12 -15 11 -17z m55 17 c0 -3 -9 -6 -20 -5 -11 1 -20 5 -20 9 0 3 9 6 20 5
11 -1 20 -5 20 -9z m35 -6 c-3 -3 -11 0 -18 7 -9 10 -8 11 6 5 10 -3 15 -9 12
-12z m40 0 c-3 -3 -11 0 -18 7 -9 10 -8 11 6 5 10 -3 15 -9 12 -12z m245 10
c0 -4 -9 -8 -20 -9 -11 -1 -20 2 -20 5 0 4 9 8 20 9 11 1 20 -2 20 -5z m40 4
c0 -2 -7 -7 -16 -10 -8 -3 -12 -2 -9 4 6 10 25 14 25 6z m-160 -32 c0 -2 -9 0
-20 6 -11 6 -20 13 -20 16 0 2 9 0 20 -6 11 -6 20 -13 20 -16z m-500 6 c0 -5
-5 -10 -11 -10 -5 0 -7 5 -4 10 3 6 8 10 11 10 2 0 4 -4 4 -10z m157 4 c-3 -3
-12 -4 -19 -1 -8 3 -5 6 6 6 11 1 17 -2 13 -5z m46 -1 c-7 -2 -19 -2 -25 0 -7
3 -2 5 12 5 14 0 19 -2 13 -5z m252 -2 c3 -5 0 -13 -6 -17 -8 -4 -9 -3 -5 4 4
7 2 12 -3 12 -6 0 -11 -5 -11 -12 0 -6 -3 -9 -6 -5 -7 7 4 27 16 27 5 0 11 -4
15 -9z m81 -3 c4 -7 4 -10 -1 -6 -4 4 -14 0 -22 -10 -13 -15 -13 -15 -3 6 12
25 16 27 26 10z m-569 -4 c-3 -3 -12 -4 -19 -1 -8 3 -5 6 6 6 11 1 17 -2 13
-5z m353 -4 c0 -5 -2 -10 -4 -10 -3 0 -8 5 -11 10 -3 6 -1 10 4 10 6 0 11 -4
11 -10z m237 -9 c0 -11 -5 -18 -9 -15 -4 3 -5 11 -1 19 7 21 12 19 10 -4z m76
4 c4 -8 3 -16 -1 -19 -4 -3 -9 4 -9 15 -2 23 3 25 10 4z m-616 -17 c-3 -8 -6
-5 -6 6 -1 11 2 17 5 13 3 -3 4 -12 1 -19z m83 12 c0 -5 -4 -10 -10 -10 -5 0
-10 5 -10 10 0 6 5 10 10 10 6 0 10 -4 10 -10z m40 -5 c0 -8 -2 -15 -4 -15 -2
0 -6 7 -10 15 -3 8 -1 15 4 15 6 0 10 -7 10 -15z m40 11 c0 -3 -4 -8 -10 -11
-5 -3 -10 -1 -10 4 0 6 5 11 10 11 6 0 10 -2 10 -4z m40 -6 c0 -5 -2 -10 -4
-10 -3 0 -8 5 -11 10 -3 6 -1 10 4 10 6 0 11 -4 11 -10z m33 -7 c-5 -12 -3
-14 7 -8 9 5 11 4 6 -4 -4 -6 -12 -9 -17 -6 -12 8 -12 35 1 35 5 0 6 -7 3 -17z
m237 -5 c10 -21 10 -21 -3 -6 -8 10 -18 14 -22 10 -5 -4 -5 -1 -1 6 10 17 14
15 26 -10z m-127 5 c-7 -2 -19 -2 -25 0 -7 3 -2 5 12 5 14 0 19 -2 13 -5z
m240 0 c-7 -2 -19 -2 -25 0 -7 3 -2 5 12 5 14 0 19 -2 13 -5z m-603 -13 c0 -5
-7 -7 -15 -4 -8 4 -15 8 -15 10 0 2 7 4 15 4 8 0 15 -4 15 -10z m36 -6 c-4
-12 -1 -14 13 -9 11 3 22 1 26 -4 4 -7 -1 -8 -11 -4 -11 4 -15 3 -10 -5 3 -6
1 -14 -5 -18 -7 -4 -9 -3 -6 3 4 6 0 13 -8 17 -13 5 -11 36 2 36 3 0 2 -7 -1
-16z m76 -6 c-7 -7 -12 -8 -12 -2 0 14 12 26 19 19 2 -3 -1 -11 -7 -17z m88
12 c0 -5 -4 -10 -10 -10 -5 0 -10 5 -10 10 0 6 5 10 10 10 6 0 10 -4 10 -10z
m120 0 c0 -5 -4 -10 -10 -10 -5 0 -10 5 -10 10 0 6 5 10 10 10 6 0 10 -4 10
-10z m80 0 c0 -5 -4 -10 -10 -10 -5 0 -10 5 -10 10 0 6 5 10 10 10 6 0 10 -4
10 -10z m60 -16 c0 -8 -4 -14 -10 -14 -5 0 -7 8 -3 18 5 14 3 15 -8 5 -7 -7
-17 -13 -23 -13 -5 0 -1 6 9 14 22 16 35 12 35 -10z m74 4 c-5 -8 -1 -9 10 -5
10 4 15 3 11 -4 -4 -5 -15 -7 -26 -4 -15 5 -18 3 -13 -12 5 -15 4 -16 -5 -3
-8 11 -7 18 4 26 8 6 11 15 7 19 -4 5 -1 5 6 1 7 -4 9 -12 6 -18z m121 12 c-3
-5 0 -10 7 -10 8 0 5 -5 -5 -11 -14 -8 -22 -8 -30 1 -9 8 -8 10 6 4 10 -3 17
-3 16 2 -2 14 0 24 7 24 3 0 2 -4 -1 -10z m-483 -42 c-6 -6 -12 -6 -17 3 -6 8
-4 10 5 4 9 -5 10 -1 6 16 -6 21 -6 22 5 6 7 -13 8 -22 1 -29z m43 21 c-5 -16
-4 -19 5 -14 9 6 11 4 5 -4 -10 -18 -27 2 -19 22 9 25 17 21 9 -4z m-235 -3
c0 -20 -17 -29 -26 -15 -5 8 -3 9 6 4 10 -6 12 -4 7 8 -3 10 -2 17 3 17 6 0
10 -6 10 -14z m380 0 c-7 -7 -14 -6 -21 1 -9 9 -7 12 9 10 14 -1 18 -5 12 -11z
m-233 -21 c-9 -7 -14 -15 -10 -19 4 -4 -1 -4 -11 0 -17 7 -17 8 3 19 12 6 18
15 14 20 -4 4 -2 5 6 0 12 -7 11 -10 -2 -20z m130 18 c-4 -3 1 -11 10 -18 13
-9 13 -14 3 -20 -8 -5 -11 -4 -7 2 4 6 0 14 -9 17 -14 5 -11 26 3 26 4 0 3 -3
0 -7z m343 -3 c0 -5 -4 -10 -10 -10 -5 0 -10 5 -10 10 0 6 5 10 10 10 6 0 10
-4 10 -10z m-590 -20 c-12 -23 -16 -24 -26 -8 -4 6 -3 8 3 5 6 -4 13 0 17 8 3
8 8 15 11 15 3 0 1 -9 -5 -20z m470 10 c0 -5 -8 -10 -17 -10 -15 0 -16 2 -3
10 19 12 20 12 20 0z m-403 -22 c2 -17 0 -19 -7 -8 -5 8 -6 18 -4 22 8 12 10
10 11 -14z m420 0 c-3 -8 -6 -5 -6 6 -1 11 2 17 5 13 3 -3 4 -12 1 -19z m-444
-11 c4 3 7 4 7 0 0 -18 -21 -14 -30 5 -10 21 -10 21 3 6 8 -10 17 -15 20 -11z
m157 1 c11 -22 11 -23 -5 -3 -13 16 -17 17 -25 6 -4 -8 -20 -15 -33 -15 -14
-1 -23 2 -20 7 3 5 13 7 23 4 11 -3 21 1 24 9 8 21 24 17 36 -8z m27 15 c-4
-3 1 -12 11 -20 15 -13 15 -13 -6 -3 -19 9 -23 30 -5 30 4 0 3 -3 0 -7z m93 2
c0 -7 -30 -13 -34 -7 -3 4 4 9 15 9 10 1 19 0 19 -2z m74 -7 c-3 -4 -11 -5
-19 -1 -21 7 -19 12 4 10 11 0 18 -5 15 -9z m176 2 c0 -5 -4 -10 -10 -10 -5 0
-10 5 -10 10 0 6 5 10 10 10 6 0 10 -4 10 -10z m40 0 c0 -5 -4 -10 -10 -10 -5
0 -10 5 -10 10 0 6 5 10 10 10 6 0 10 -4 10 -10z m-645 -21 c-4 -5 -14 -8 -23
-8 -15 1 -15 2 1 6 9 2 14 9 11 15 -4 7 -2 8 5 4 6 -4 9 -12 6 -17z m33 -3
c-10 -7 -15 -16 -11 -19 3 -4 -1 -9 -9 -12 -9 -4 -14 -14 -11 -25 3 -10 1 -20
-4 -23 -5 -3 -8 6 -7 20 0 13 7 29 15 34 8 5 10 9 4 9 -5 0 -1 7 9 15 11 8 22
15 25 15 3 0 -2 -7 -11 -14z m288 2 c4 -6 3 -8 -3 -5 -6 4 -14 -5 -17 -19 -4
-15 -9 -24 -12 -22 -5 6 13 58 20 58 3 0 8 -5 12 -12z m40 -13 c3 -17 -12 -20
-21 -5 -3 6 -1 10 5 10 6 0 8 6 4 13 -4 6 -3 8 1 4 5 -4 10 -14 11 -22z m41
18 c-4 -3 -1 -11 6 -17 7 -6 10 -10 8 -9 -2 2 -9 -5 -16 -14 -9 -13 -14 -13
-20 -3 -6 9 -4 11 4 5 9 -5 12 -1 11 11 -3 26 -1 34 7 34 3 0 3 -3 0 -7z m60
-8 c-6 -7 -14 -9 -15 -4 -2 5 -9 6 -14 3 -6 -4 -8 -3 -5 2 3 5 15 10 26 11 17
1 18 -1 8 -12z m43 5 c0 -5 -2 -10 -4 -10 -3 0 -8 5 -11 10 -3 6 -1 10 4 10 6
0 11 -4 11 -10z m120 -15 c0 -8 -2 -15 -4 -15 -2 0 -6 7 -10 15 -3 8 -1 15 4
15 6 0 10 -7 10 -15z m-573 -20 c-9 -7 -13 -16 -9 -20 4 -5 1 -5 -7 0 -12 7
-11 10 2 20 9 7 13 16 9 20 -4 5 -1 5 7 0 12 -7 11 -10 -2 -20z m88 4 c-4 -5
-12 -9 -18 -8 -9 0 -8 2 1 6 6 2 9 10 6 15 -4 7 -2 8 5 4 6 -4 9 -12 6 -17z
m41 9 c4 -7 4 -10 -1 -6 -4 4 -14 0 -22 -10 -13 -15 -13 -15 -3 6 12 25 16 27
26 10z m44 -3 c0 -8 -2 -15 -4 -15 -2 0 -6 7 -10 15 -3 8 -1 15 4 15 6 0 10
-7 10 -15z m45 5 c3 -5 1 -10 -4 -10 -6 0 -11 5 -11 10 0 6 2 10 4 10 3 0 8
-4 11 -10z m215 -5 c0 -8 -2 -15 -4 -15 -2 0 -6 7 -10 15 -3 8 -1 15 4 15 6 0
10 -7 10 -15z m76 -2 c-3 -19 -36 -32 -36 -14 0 6 7 8 15 4 9 -3 15 -2 14 3
-2 13 0 24 5 24 2 0 3 -8 2 -17z m119 7 c3 -5 1 -10 -4 -10 -6 0 -11 5 -11 10
0 6 2 10 4 10 3 0 8 -4 11 -10z m-82 -21 c-8 -8 -13 -7 -18 2 -5 8 -4 10 3 5
7 -4 12 -2 12 5 0 7 3 9 7 6 4 -4 2 -12 -4 -18z m-496 5 c-3 -3 -12 -4 -19 -1
-8 3 -5 6 6 6 11 1 17 -2 13 -5z m253 -10 c0 -2 -7 -4 -15 -4 -8 0 -15 4 -15
10 0 5 7 7 15 4 8 -4 15 -8 15 -10z m85 -10 c-1 -15 -10 -30 -21 -36 -18 -9
-18 -8 -2 5 10 8 15 17 12 20 -6 6 2 37 9 37 1 0 2 -12 2 -26z m16 3 c-10 -9
-11 -8 -5 6 3 10 9 15 12 12 3 -3 0 -11 -7 -18z m219 7 c0 -2 -7 -4 -15 -4 -8
0 -15 4 -15 10 0 5 7 7 15 4 8 -4 15 -8 15 -10z m-491 -1 c-3 -21 2 -33 13
-27 7 5 8 3 3 -6 -6 -10 -11 -9 -21 5 -7 10 -11 22 -8 26 6 11 14 12 13 2z
m128 -15 c-3 -8 -6 -5 -6 6 -1 11 2 17 5 13 3 -3 4 -12 1 -19z m207 7 c3 -8 1
-15 -4 -15 -6 0 -10 7 -10 15 0 8 2 15 4 15 2 0 6 -7 10 -15z m113 -7 c-3 -8
-6 -5 -6 6 -1 11 2 17 5 13 3 -3 4 -12 1 -19z m-547 -3 c0 -8 -2 -15 -4 -15
-2 0 -6 7 -10 15 -3 8 -1 15 4 15 6 0 10 -7 10 -15z m40 11 c0 -3 -4 -8 -10
-11 -5 -3 -10 -1 -10 4 0 6 5 11 10 11 6 0 10 -2 10 -4z m120 -6 c0 -5 -4 -10
-10 -10 -5 0 -10 5 -10 10 0 6 5 10 10 10 6 0 10 -4 10 -10z m240 0 c0 -5 -5
-10 -11 -10 -5 0 -7 5 -4 10 3 6 8 10 11 10 2 0 4 -4 4 -10z m122 -7 c-5 -9
-21 -17 -35 -17 -14 -1 -23 2 -20 7 3 5 13 7 23 4 11 -3 21 1 24 9 3 8 8 14
11 14 3 0 2 -8 -3 -17z m-449 -6 c7 3 8 2 4 -2 -10 -11 -37 -15 -37 -6 0 14
14 23 18 12 2 -6 9 -8 15 -4z m239 -9 c-7 -7 -16 -6 -29 1 -16 11 -15 11 6 5
17 -4 21 -3 16 6 -6 9 -4 11 4 5 9 -5 9 -11 3 -17z m-332 -1 c0 -5 -7 -6 -16
-3 -13 5 -15 2 -11 -14 3 -11 0 -23 -6 -27 -7 -3 -9 -3 -5 2 4 4 0 14 -10 22
-9 8 -12 12 -6 9 7 -3 14 0 17 7 6 15 37 19 37 4z m280 9 c0 -3 -4 -8 -10 -11
-5 -3 -10 -1 -10 4 0 6 5 11 10 11 6 0 10 -2 10 -4z m320 0 c0 -3 -4 -8 -10
-11 -5 -3 -10 -1 -10 4 0 6 5 11 10 11 6 0 10 -2 10 -4z m-546 -21 c3 -8 1
-15 -4 -15 -6 0 -10 7 -10 15 0 8 2 15 4 15 2 0 6 -7 10 -15z m103 -6 c2 -16
-1 -19 -9 -11 -5 5 -7 15 -4 21 10 15 12 14 13 -10z m30 -11 c-3 -7 -5 -2 -5
12 0 14 2 19 5 13 2 -7 2 -19 0 -25z m60 0 c-3 -7 -5 -2 -5 12 0 14 2 19 5 13
2 -7 2 -19 0 -25z m163 28 c0 -2 -7 -7 -16 -10 -8 -3 -12 -2 -9 4 6 10 25 14
25 6z m37 -2 c-3 -3 -12 -4 -19 -1 -8 3 -5 6 6 6 11 1 17 -2 13 -5z m120 -26
c-3 -7 -5 -2 -5 12 0 14 2 19 5 13 2 -7 2 -19 0 -25z m-442 -7 c-6 -5 -25 10
-25 20 0 5 6 4 14 -3 8 -7 12 -15 11 -17z m175 19 c0 -5 -4 -10 -10 -10 -5 0
-10 5 -10 10 0 6 5 10 10 10 6 0 10 -4 10 -10z m193 -15 c4 3 5 2 2 -2 -11
-14 -34 -11 -28 3 4 10 0 13 -13 8 -16 -5 -16 -4 -4 5 11 8 18 7 26 -4 6 -8
14 -13 17 -10z m47 0 c0 -2 -6 -7 -12 -11 -7 -4 -10 -4 -6 1 4 4 0 14 -10 22
-15 13 -15 13 6 3 12 -6 22 -13 22 -15z m80 15 c0 -5 -4 -10 -10 -10 -5 0 -10
5 -10 10 0 6 5 10 10 10 6 0 10 -4 10 -10z m-585 -20 c3 -5 1 -10 -4 -10 -6 0
-11 5 -11 10 0 6 2 10 4 10 3 0 8 -4 11 -10z m45 0 c-8 -5 -19 -10 -25 -10 -5
0 -3 5 5 10 8 5 20 10 25 10 6 0 3 -5 -5 -10z m195 0 c3 -5 1 -10 -4 -10 -6 0
-11 5 -11 10 0 6 2 10 4 10 3 0 8 -4 11 -10z m45 0 c-8 -5 -19 -10 -25 -10 -5
0 -3 5 5 10 8 5 20 10 25 10 6 0 3 -5 -5 -10z m47 4 c-3 -3 -12 -4 -19 -1 -8
3 -5 6 6 6 11 1 17 -2 13 -5z m228 -4 c3 -5 1 -10 -4 -10 -6 0 -11 5 -11 10 0
6 2 10 4 10 3 0 8 -4 11 -10z"/>
<path d="M1680 1283 c-58 -57 -104 -110 -102 -116 2 -7 0 -8 -4 -4 -10 10
-195 -174 -187 -186 3 -6 2 -7 -4 -4 -13 8 -76 -57 -66 -67 5 -4 3 -6 -2 -4
-15 4 -78 -50 -71 -61 3 -5 -4 -11 -15 -14 -13 -4 -18 -10 -13 -18 4 -7 3 -10
-3 -6 -11 7 -346 -326 -338 -336 3 -4 2 -5 -2 -2 -7 6 -53 -34 -53 -46 0 -4
38 -7 85 -7 56 1 85 5 85 12 0 8 2 8 8 0 9 -14 124 -13 134 1 5 6 8 6 8 -2 0
-7 9 -13 20 -13 11 0 20 6 20 13 0 8 3 8 8 1 10 -15 534 -15 544 0 5 8 8 7 8
-1 0 -7 11 -12 24 -11 l25 2 0 488 c0 268 0 488 -2 487 -1 0 -49 -48 -107
-106z m60 -59 c0 -8 -19 -13 -24 -6 -3 5 1 9 9 9 8 0 15 -2 15 -3z m-93 -199
c0 -8 -4 -12 -9 -9 -5 3 -6 10 -3 15 9 13 12 11 12 -6z m118 -94 c3 -5 2 -12
-3 -15 -5 -3 -9 1 -9 9 0 17 3 19 12 6z m-385 -27 c0 -8 -19 -13 -24 -6 -3 5
1 9 9 9 8 0 15 -2 15 -3z m-50 -80 c0 -8 -19 -13 -24 -6 -3 5 1 9 9 9 8 0 15
-2 15 -3z m160 0 c0 -8 -19 -13 -24 -6 -3 5 1 9 9 9 8 0 15 -2 15 -3z m0 -84
c0 -5 -2 -10 -4 -10 -3 0 -8 5 -11 10 -3 6 -1 10 4 10 6 0 11 -4 11 -10z m244
2 c3 -5 -1 -9 -9 -9 -8 0 -12 4 -9 9 3 4 7 8 9 8 2 0 6 -4 9 -8z m-404 -82 c0
-5 -5 -10 -11 -10 -5 0 -7 5 -4 10 3 6 8 10 11 10 2 0 4 -4 4 -10z m160 0 c0
-5 -5 -10 -11 -10 -5 0 -7 5 -4 10 3 6 8 10 11 10 2 0 4 -4 4 -10z m-326 -78
c3 -5 -1 -9 -9 -9 -8 0 -12 4 -9 9 3 4 7 8 9 8 2 0 6 -4 9 -8z m83 -77 c0 -8
-4 -12 -9 -9 -5 3 -6 10 -3 15 9 13 12 11 12 -6z m-157 -1 c0 -8 -19 -13 -24
-6 -3 5 1 9 9 9 8 0 15 -2 15 -3z m404 -2 c3 -5 -1 -9 -9 -9 -8 0 -12 4 -9 9
3 4 7 8 9 8 2 0 6 -4 9 -8z m-566 -47 c-3 -3 -9 2 -12 12 -6 14 -5 15 5 6 7
-7 10 -15 7 -18z"/>
</g>
</svg>
